<svg id="Layer_1" data-name="Layer 1" xmlns="http://www.w3.org/2000/svg" viewBox="0 0 288.86 397.35"><defs><style>.cls-1{fill:#000000;}</style></defs><title>skull_bg</title><path class="cls-1" d="M288.8,240.2c-1-.2-1.2-.9-.7-1.9a2.1,2.1,0,0,0-.1-2.4,1.9,1.9,0,0,1-.1-1.8,22,22,0,0,1-3.6-.4,2.73,2.73,0,0,1-1.6-1.4c-.3-.5,1.2-1.9,1.8-1.9a11.27,11.27,0,0,1,1.8.3c1,.3,2,.5,3,.8.7.2,1.6.6,1.4,1.5h0c.5-.1,1.1-.1,1.6-.2v.3c.6,0,1.2-.1,1.8-.1a5.92,5.92,0,0,1,1.9-.1h0c0-1.2.1-2.4.2-3.6.3-2.7,1.6-4.8,2.5-7,1.3-3.1,2.1-7.2.4-9.6-3.1-4.5-3-5.2.3-8.9,2.2-2.3,1.6-4.9-1.5-5.2-2.9-.3-4.5-1.5-5.2-4.2a3.89,3.89,0,0,0-.1,2.8,1.66,1.66,0,0,1-1.3,2.1c-2.1.4-4.1,1.2-6.4.9-1.2-.2-2.8,1.6-3.8,0-.7-1.1-.7-2.8-.7-4.3.1-6.2,5.5-11.3,3.7-17.9v-.3c1.9-2.2-1-3-1.4-2.7-1.3.8-1.8-.3-2.5-.6-3.2-1.6-6.3.2-9.4.4-2.8.2-2.1,3.1-2.9,4.8-1.4,3,.1,6.4-1.3,9.8-1.6,3.8-3.3,6.7-7.3,7.9-.3.1-1.1.2-.9.4,2,1.7-.2,1.4-.8,1.7-2.7,1.4-4.2,1.3-7.5,0-.3-.1-.7.2-1,.4-3,1.1-6,2.2-8.9,3.5-.9.4-2.2.2-2.5,1.5-.5,1.8-1.6,2.2-3.3,1.8a28.13,28.13,0,0,1-10.4-4,4.75,4.75,0,0,0-2.2-.6c-3.5-.4-7,1.4-10.5.2-.3-.1-.7.2-1,.4-2.7,2.3-6.2.7-9.3,1.8-1.9.7-4.9-1.3-7.2.8-.3.3-.4.1-.5-.2a3,3,0,0,0-4-1.6c-.6.3-1.2.8-1.4-.1-.3-1.4-.5-1.1-1.6-.6-2.4,1.1-4.8-1.3-7.5-.3a21.15,21.15,0,0,1-3.3.5c-1.1.1-.9-3.4-2.3-.7-.2-2.5-3.6-1.4-4.1-3.9-.6-2.8-2.4-4-5.2-2.2a1.27,1.27,0,0,1-.6.1c-2.3,1-5.2,1-6.7,3.4-.3.4.4,1.5-.7,1.2a2.29,2.29,0,0,1-1.5-1.2c-.2-.5.2-1.1.8-1.5a17.92,17.92,0,0,0,7.7-8.8c1.2-2.9.7-6.6-1.9-8-1.6-.8-2.9-1.4-3.4-3.1,0-.1-.4-.1-.6-.1-1.3,0-1.3.1-1.4-.6-.4-2.1-.5-2.2-5.5-3.9.1.1.1.2.2.3s.1.3.2.4c.6,1.2.5,1.3-.5,2.1a4.75,4.75,0,0,1-2.3-1.9c-1.1.2-.6,2.8-1.7,1.7-.8-.7-2-.8-2.5-1.8-.3-.7-1.6-.7-1.3-1.8s1-.3,1.6-.1c.3.1.7-.2.5-.5-1.3-2,.9-3.1,1.1-4.7.1-1.2.1-2.4,1.2-3.2-2.3-.3-1.1-2.9-2.7-3.8.8-.1,1.6.6,2.2-.3-1.3-.6.5-2.1-.9-2.8s-1,1.6-2.1,1.3c-.8-1,.1-3.3-.5-3.3-3.1.4-5.6-3-8.9-.9-1.8,1.2-4-.3-4.1-2.6a8.79,8.79,0,0,1,2-6.4c.8-1,1.1-1.9-.1-2.8,1-.8,2,1.1,2.9-.2-.5-.8-2.5-.3-1.9-1.1,1.8-2.3-.4-4-.4-5.9,0-2.8-.6-3.4-2.8-1.7-1.9,1.5-1.5.2-2.1-.9-1.4-2.4.4-5.8-2.8-7.5-.1,0,.1-.8.3-1.1s.6-.6-.1-1.2-.7-2.9,0-3.6c2.2-2,3.7-1.6,4.4,1.3.4,1.7.3,3.8,2.4,4.6,1.8.7,2.2,2.5,2.7,3.9a4.25,4.25,0,0,0,1.7,2c.1.1,0,.3.1.5-.6.3-1-1.3-1.8-.2,3.1,4.5,7.9,7.3,10.7,12.7,0,.1-2-1.1-1.2,0,.5.7,1.8,2.2,2,2,2-1.2,2.5.7,2.9,1.5.9,1.7,2.7,2.1,4,3.1.5.4.8.2,1.2-.2.7-.7,0-.7-.4-.9-.6-.5.1-.9.3-1.2s.5-.3.9.1c1,1.1,6.8.5,7.3-.8,1-3,2.5-2.2,4.2-.4-.5-2-1.5-3.5,1.8-3.4,1.9,0,4.8-.3,6.2-2.7a1.53,1.53,0,0,1,.7-.5,1.47,1.47,0,0,0,1.7.4,1.75,1.75,0,0,0-.4-1.9,1.61,1.61,0,0,1,.7-2.4,22,22,0,0,1,3.7-.5v.3c.7-.1,1.5-.1,2.2-.2a4.07,4.07,0,0,0,1.8-.5c3.2-2.2,7.3-2.5,10.7-4.4,1.4-.8,3.5-.7,5.5-.6h.3a3.77,3.77,0,0,1-.8-1.8c-.1-.5-.2-1.1-.3-1.6a1.26,1.26,0,0,1,1-1.6,3.76,3.76,0,0,0,1.8-1.5,15.38,15.38,0,0,1,1.3-1.2c.6-.5,1.2-.3,1.7.3.4.4.2,1.6-.1,2.1-.7,1.2-1.5,2.4-.8,4a1.66,1.66,0,0,1,0,1.2,11,11,0,0,0,1.8-.2c2.2-.3,3.9-2.5,6.3-1.7,4.7,1.5,9.6,2.7,14,4.9,1.5.8,6,.2,4.5,4.5,0,.1.4.6.5.5,1.3-.7,3.1,1.5,4.3-1,1.1-2.2,2.3-2,3.9,0,.9,1.1,1.4,2.5,3.7,2,1.4-.3,2.6,2.6,4.8,2.3-.1,1.7,1,2.7,2.4,3.3a2.8,2.8,0,0,0-.4,2.5c.1-.1.2-.2.3-.2s.4.4.4.5a.64.64,0,0,1-.5.5h0a6.2,6.2,0,0,1,.4,2.3c-.2,1.3.6,1.9,1.9,1.4.7-.2.4.5.7.6,3.2,1.2.8,3.2.5,4.8,1.3,0,1.3-1.6,3-1.6-1.1,1.5.5,3-.9,4.5-.8.8.4.6.6.8,1.5,2.1,3.6.7,4.3-.1,1-1.2,1.5-.7,2.4-.3-1.2.5-1.6.9-1.1,1.3,1.4,1.1,1.2,2-.2,2.9a.88.88,0,0,0,0,1.5c.8.2.7,1.6,1.5,1.2,1.3-.5,2.8,0,3.6-2.4.9-2.8,3-5.1,3.1-8.3.1-1.1-.1-2.3,0-3.5-2.9,0-1.7-2.2-2.1-3.6-.1-.5-.5-.9-.6-1.3-1.6-4.8-6.4-7.5-7.7-12.4,0-.2-.3-.3-.4-.4a12.62,12.62,0,0,1-4.9-8.2,49.09,49.09,0,0,1-.7-8.6c-.2-.1-.4-.1-.6-.2-.4-.2-.9-.4-.8-1.1a.88.88,0,0,1,1.1-.8h.3v-.3a8.5,8.5,0,0,1,.8-4.3c1.7-2.8.8-6.9,4.4-8.7a1.34,1.34,0,0,0-.1-.5c-1.1-2.4,0-4.2,1.3-6.1.7-1,1.9-2.5,1.8-3.1a14.38,14.38,0,0,1,1.5-8.4,1.38,1.38,0,0,0-.1-1.1c-2.6-3.1.6-7.4-2.2-10.4-.1-.1.4-.5.4-.7.7-2.7-.1-5.7,1.1-8.3-.7-.3.6-2.5-1.5-1.4-1,.5-1.1-.6-1-1.2s1.4-.4.9-1.2c-.6-1.1-1.1.4-1.7.2-.3-.1-.5-.6-.7-.9,1.7-.6.5-1-.1-1.5a1.47,1.47,0,0,1-.2-2.1c1.5-.9.6-1.3-.3-1.2-1.1.1-1.3-.7-1-1.2.5-.9.3-1.1-.6-1.4-1.3-.4-2.3-1.1-.8-2.5-1-.9,1.3-1.2.4-2.1a4.76,4.76,0,0,1-2.6-.2h-.3c-1.9.8-1.9-.7-2.5-1.8-1-1.5-1.2-3.9-3.9-3.7-.9.1-.4-1.1-.6-1.8a11.41,11.41,0,0,1,1.1-1.1h-.2c.1-.2.1-.6.2-.7s.4-.1.8-.1c0-1.8-2.1-3.1-5.1-2.9-1.1.1-2.4.8-2.5-.8s1.4-1.6,2.6-1.5c.4,0,.9.7,1.1-.2a1,1,0,0,0-1.1-.7c-2.2-.2-4.3-.8-6.4-1-1.8-.2-3.5.3-5-1.5-.8-1-2.6-1.1-3.9-1.6h0c-2,.6-4.1-.5-6.1.6,1.7-2.8-2-3.1-2.4-5.1-.3-1.2-1.6.1-2.5.4-.6.2-1.8.2-1.9-.1-1.3-2.4-2.3-.5-3.3.2-.6.4-1.3.8-1.8.1s1.3-.3,1-1.3a18.07,18.07,0,0,0-5.2.6c-3,1-5.9-1.3-9.2-.4-1.1.3-3-2-4.8-.4-.1.1-.6-.1-.8-.3a3.12,3.12,0,0,0-3.6-.5c-2,.8-4.2,1.9-6.5.7-2.1-1.1-4.4-.9-6.8-.9-1.3,0-3.3-.2-3.9-1.1-2-2.9-4.1-1.9-6.1-.6-.7.4-.9.7-1.8.6-1.4-.2-3.7-.8-4.2-.3-1.7,1.7-3.1-1.6-4.4,0-.1-.4-.8-.9,0-1.2.5-.2,1.6.1,1.7-.2.6-1.1,3.2-.2,2.5-2.1-.3-.8-2.4-.5-3-.8-2-.9-3.7,2.9-5.3.1-3.4,1.2-7.3.8-10.3,3.4,1.1-1.3,1.1-2.8,1.2-4.3-.8-1.2-1.7-2.2-3.4-1.9-1,.6-1.9,0-3.3,0,3.5,1.8-.5,2.2-.3,3.5.1.5-1,.5-1.3-.1-.7-1.4.5-1.7,1.5-2.1-1-1.1-2.2.5-3.3-.7-.5-.6-3,1.4-2.7,1.9.6.5,1.1-1.1,1.8-.2-.2,1.1-1.4.7-2.1,1.3,1.4.3,1.7,1.1,1.4,2.4-1.9-1.4-7.1-1.3-6.9-.2.7,3-1.8,1.7-2.7,2.5-.1.1-.1.3-.1.2.3,1.5,1.8-.6,2.1,1.2a9.57,9.57,0,0,0-4.5,2.7,1.4,1.4,0,0,1-1.9.4c-.9-.6.6-1.4-.3-2.4-.8,2.1-1.9,2.5-2.9-.1.3,1.8.1,2.8-1.9,2.9-2.5.1-4.3,1.3-4.6,4.2-.1.7-1.6,1.5-2.6,1.7-1.2.2-1.9.3-2.4,1.6-.3.9-3.5,1-4.1.2-.5-.6-.4,0-.6.1a5.79,5.79,0,0,0-3.9,2.1.72.72,0,0,1,.6.4c.3.5.1.9-.3,1.3a4.65,4.65,0,0,1-2.3,1.4c-.1,0-.1,0-.2.1s-.3.5-.5.7v-.3c-.1.1-.2.2-.2.3a2.48,2.48,0,0,1-2.3,1.1h-.3a4.89,4.89,0,0,0,.2,2.5,19.22,19.22,0,0,1-2.4,0c-3.5-.7-3.9-.4-4.5,3a8.86,8.86,0,0,1-.8,1.7c-1.3-.4.3-1.5-.6-1.9-.9-.1-1,2.8-2.4.6-.6,1.5-3.3,0-3.3,2.1,0,1.5-.2,2.4-1.9,2.7S68.1,52.8,68,51c-1.2,2.3-1.1,3.4.1,4.8.3.3.3.8.5,1.2a2.31,2.31,0,0,0-1.4,1c-2.4-1.8-1,1.1-1.8,1.4-.3-.1-.7-.2-1-.3-.5-.1-.8-1.1-1.5-.6-.2.1-.2.8-.1,1.1.3,1,1.1.1,1.3.2,1.1.6,2.1-.2,3.2-.1-.7,1.2-1.2,3.1-2,3.2-3.6.7-4.1,4.2-5.1,6.4s-2.5,4.1-3.5,6.3a3.71,3.71,0,0,1-3.3,2.3c-.9.1-2.3,0-1.7,2.1.4,1.2-1.6,2.7-.9,4.4-1-.1-.4,1.3-.8,1.2a2.69,2.69,0,0,0-3.1,1.1l.6,1.2c.1.1.1.3.2.4.6,1.3.6,1.4-.5,2.3A4.74,4.74,0,0,1,45.1,89a3.08,3.08,0,0,1-2.3,1c-.1,0-.1.6-.2.8-2,2.1-1.3,5.2-3.1,7.4a2.66,2.66,0,0,0-.6,3.3c.6,1.1-.4,1.6-1.3,1.9-.1,0-.2.1-.3.1a6.28,6.28,0,0,1-1.2,1.1,1.42,1.42,0,0,1-.6.2,3,3,0,0,0,.4,1.3,1.28,1.28,0,0,1-.4,1c-2.1.7-2.1,2.4-1.8,3.7.5.2.8.7,1,1.5s.5,1.2,1.2,1.3c.2,0,.3.3.5.4a2.18,2.18,0,0,1-.4.5,2.88,2.88,0,0,1-2,1.2c-.3,1-.5,1.9.5,2.7-.2.2-.4.5-.6.6-1.8.7-1.5,2.3-1.5,3.7a6.22,6.22,0,0,0,.9,4.4c-2.2.7.2,2.4-.5,4,.1-.2.3-.3.4-.5a5.74,5.74,0,0,0,.4.7,5,5,0,0,0-.7.8,3.29,3.29,0,0,1-.3-.6.1.1,0,0,1,.1-.1,1,1,0,0,1-.6.5c-1.3.8-1.2,4.4-3.8,5.5a1.92,1.92,0,0,0-1.4,1.8c0,1.1-.2,1.8-1.5,1.2a1.9,1.9,0,0,0-.7.8c-.1.8,1.7.5,1.1,1.9-.9,1.9-1.1-.6-1.7-.2a.76.76,0,0,0-.2.5c0,1.2-.7,2.7-.5,3.6.5,2.4-.8,3.7-2.3,4.6-1.9,1.1-1.5,1.8,0,2.4,2.6,1.2-2.7,1.1-.3,2.3.3.2-.2.5-.6.3s-.7-1.2-1.3-.3c-.5.6-.1,1,.3,1.6s.6,1.4,1.4.3a.78.78,0,0,1,1.4.3,3.67,3.67,0,0,1-.1,1.8l.3.9h.2c.8.2,1,.8.8,1.6-.1.4-.6.7-1.1,1a14.13,14.13,0,0,1-.6,2.2c0,.1,0,.1-.1.1,0,.2.1.3.1.5a5.69,5.69,0,0,1-1.3,4.8c-.8-.8-.4-2.2-2.3-3.1,1.8,3.7,2.8,6.9,2.7,10.3a.85.85,0,0,0,.3.5c1.9,1.2.9,3.6,2.2,5.2.3.4,1.2,2.3-.8,3-.9.3-.7.9.1,1,1.2.2.8.8.6,1.5-.9,3.9,1.1,6.1,5.2,5.5.6-.1,1.5-.5,1.5.2.1,2.1,1.4,4.6.1,6.3a29.14,29.14,0,0,0-4.5,11c-.4,2-1.7,3.2-2.9,4.5v.1c-.3.4-.3,1.2-1,1.1a5.29,5.29,0,0,0-1.1,2.1c-.9,3.1-3.7,4.2-6,5.3-1.6.8-2.9,1.3-2.3,3,.5,1.3,2,1.6,3.5,1.8.9.1,2.6-.4,3.4,2,.6,1.9-.6,2.6-.5,3.8a41.18,41.18,0,0,1-.4,14c-.5,2.8-1.5,5.4-1.5,8.3a2.17,2.17,0,0,1-1.1,1.7c-2.1,1.2-1.7,2.9-.5,4.2,1.7,2-1,4.8,1.5,6.5-.2.2-.4.6-.6.6-2.1.2-1.5,1.5-.8,2.5,1.1,1.6.6,2.1-1.1,2.5a2,2,0,0,0-1.2,3.2c0,.1,1.4-.1.6.6-1.6,1.3-1,2.6-.1,3.6,1.1,1.2,2.5.1,3.5-.4a12.62,12.62,0,0,0,3.2-2.5c.9-.7-2.5-.7-.3-1.4,1.4-.5,1-1,.9-2.1-.1-1.7-1.1-3.7.7-5.3-.9,2.2,2.1,4.1.1,6.4,1.2-1.1,2.7-1.5,3.8-.8s1.3,2.3.6,3.7a2.77,2.77,0,0,0,0,1.8c1,3-1.7,5.1-1.7,7.8,0,.1.1.2.2.5,2.6-1.3,4,.2,4.7,2.6.5,1.9.3,4.5-.7,5.5a9.21,9.21,0,0,0-2.3,5.9c-.5,5.2,6.4,10.9,10.4,11.6.8.2,1.1-.9,2.1-.2,2.4,1.7,4.3,1,5.7-1.6.9-1.7,1.8-3.4,2.6-5.1.5-1.2,3.1-.6,2.2-2.8-.9-.5-.9,1.3-1.9.8,2.4-5.2,2.2-7.5-.5-9.3,2.6-2.5,3.8,1.4,6,1.5,1,.1,1.9,1.6,3.1.3s.7-3.7-.1-4.1c-1.8-1-.8-1.8-.5-2.9a16.18,16.18,0,0,0-.1-10.2c-.3-.9-1.1-1.5-.4-2.5,1-1.4,2.5-.8,3.7-.9.9-.1,1.6.7,1.6,2a11.31,11.31,0,0,0,2.6,7.1c1.3,1.7,2.9,3.8,1.5,6.1a4.13,4.13,0,0,0-.2,3.6,2.72,2.72,0,0,1-.2,3.8c-2.5,1.1-1.8,3.7-3,5.3,1.3.4,2.5.7,3.7,1-1.6.6-3.2-.7-4.6,1.5-2,3.3-3.9,6.6-4.6,10.3a7.08,7.08,0,0,0,.3,3.6c1.7,3,1.9,3.7.6,6.9-.1.3-.1.5.2.7,1.9,1,.6,2-.2,2.6-3.2,2.1-1,5.7-2.3,8.2l.2.2c-.4,3.7,2.2,7,1.1,10.9a7.71,7.71,0,0,0,1.7,7c1,1.1,2.2,2.3,3.7,1.3.7-.4,1.1-1.1,2-.9.2.1.4.4.6.6a1,1,0,0,0-.7.5,1.22,1.22,0,0,1,1,.6c.4.4.2,1.6-.2,2.1a5.39,5.39,0,0,0-.7,1.3c3.4,1.9,7,3.7,11,4,1.3.1,3.5.8,4.4-1.3.3-.6.5-1.6,1.3-1.3a1.76,1.76,0,0,1,1.5,1.8c.1,1.3,2.2,1.7,2.6,1,.9-1.8,2.2-.9,3.3-1.3,2.2-.8,3.6,1.3,5.3,1.1a29.09,29.09,0,0,1,11,.2.83.83,0,0,0,1-.5c.8-2.7,3.5-2.4,5.3-4-.2,1.5,3.4,5.9,4,5.5,2.5-1.8,3.3.4,4.8,1.5,1.7,1.2,3,2,4,4.1a9.12,9.12,0,0,1,.7,5.9c2.6-1.8,5.2-1.5,7.8-.8,1.1.3,1.7-.1,1.8-1.3.1-.7.7-.6,1.2-.5s.9,1,.7,1.1c-1.3.6-1.1,2.4-2.2,2.9-1.3.7-1.7-.3-1.9-1.5,0-.1-.5-.2-.8-.2-.6,0-4.3,5.2-4.2,5.8.2,1.8,4.7,4.5,6.6,4.1,2.2-.5,4.5-1,6.7,0,.5.2,1.1.2.9,1.1a2.74,2.74,0,0,0,2.9,3.1c2.2-.2,4.8-1.3,6.2,1.7.2.5.9.4,1.4.3s.6-.6.2-1.1-.1-1,.6-1.4c1.3-.8,2.7.9,3.9,0,2.4-1.8,1.8,1.6,3,1.7.6-2.1,2.3-3.3,3.3-2.3,2.3,2.2,2.6.3,3.1-1.4.8.3.6,1.9,1.6,1.4,1.7-.7,3.2.5,5,0,2-.6,3.5,1.2,3.9,2.8,1.3,5.9,4.1,8.7,9.8,10.1,1.5.4,3.2.3,4.7,1.8,2,2,9.2-.1,8.9-2.5-.5-4.8,1.8-9.8-1.1-14.4-.3-.5-.5-1,.1-1.2,2.6-.9-.6-3.1.9-4.2-3.1-1.5-1.2-4.9-2.7-7.1s1-4.4,1-6.7c0-1.7-1.2-4.5-2.7-4-2,.6-1.5-.6-1.5-1.4-.2-3.3,1.2-6.9-1.7-9.9a2,2,0,0,1,.2-2.4,3.59,3.59,0,0,0,1.5-2.1c.2-1.1,5.1-5.3,6.2-5.4,4.4-.4,5.1-.9,5.5-5.2.2-2.3.7-4.1,3.4-4.4-.5-.9-3-1.1-.6-2.2,1.1-.5.8-1.5,1.4-2.1,1.7-1.6,1.3-5.1,5-5.2.7,0,2.8-2.8,2.2-4.3-1.5-3.8,1.1-5.7,3-8,.2-.2.2-.5.3-.8-.6.2-1,.3-1.6.5.7-2.6,2.7-3.9,4.3-5.6,1.3-1.4,1.5-1.4.3-2.7s-.4-4.5-3.5-4.6c-.1,0-.2-.3-.2-.4,2.4-2.2-1.1-1.1-1.1-1.9a3.26,3.26,0,0,1-2.8-1.3c-.4-.5-.8-.1-1.4.1-1.9.6-2.2,2.7-3.6,3.4-1.6.8-3,1.7-3.5,3.4-.2.8-1.1,1.1-1.2.8-.3-1.5-2.2-2.2-1.6-3.9,1.8-5.2-1.1-9.1-4-12.7-.4-.5-3.1-.7-4.6-1.5-1.1-.6-1,.3-1.3.9-1.5,3-3.6,5.8-2.4,9.4.3.8-.5.7-.8.9-1.4,1.4-3.1.5-4.7.3.8-1.2-3.2-1.2-.8-3,.4-.3-.8-.4-.9-.8-.2-1.4-2.5-3.4-1.2-3.8,1.7-.5,1.7-1.7,2.4-2.5.9-1,2.8-2.1,2.7-2.9-.6-3,1.9-4.7,3.3-5.8,3.1-2.5,3.6-5.6,4.1-8.9.3-1.7.7-2.3,2.1-1,.6.6,1.2.8,1.7,0s-.2-1-.6-1.3-.5-.6-.1-1.1a5,5,0,0,0,5.5-2c.5-.8.8-1,2-.3s2.8,2.6,4.6.4c.2-.3,2-.2,1.4,1.2-1.2,2.5.6,4.3,1.2,6.3.3.9,1,.8,1.7.5,2.5-1.2,2.9,0,3,2.2.1,1,.4,2.9,1.9,2.3,1.9-.8,4.2.7,5.8-1.3.6-.8,1.7.3,1.7.4.3,2.4,3.2,3.5,3,6.1-.1,1.3.7,3,1.7,3.1,1.2.1,1.7-1.7,2.3-2.7.2-.3,0-.8.1-1.2.8-2.5,1.8-4.8,4.2-6.3.6-.3,1.2-.5,1.6,0s-.3.8-.5,1.2a2.65,2.65,0,0,0,1.9,4,10.08,10.08,0,0,0,8.8-3.2,17.11,17.11,0,0,1,7.5-5.3c-.6,2.2,1.7,2.9,2,4,.5,2.4,2.2,1.6,3.4,1.8,1.4.3,1.4-1.4,2-2.2.3-.4-.3-1.2,1-1.3,1.5-.2,2-2.1,2.9-3.3s-.3-1.9-1.1-2.6a1.13,1.13,0,0,1,.4-1.7,1.69,1.69,0,0,1,1.9,1.1c.2,2.8,1.7,1.7,3.1,1.1a45.79,45.79,0,0,0,10.5-7c2.1-1.9,2.6-5.5,1.1-7.4,1.4.4,1.9-.1,2.1-.7,0-.1-.1-.1-.2-.2.1-.2.3-.5.4-.7a2.22,2.22,0,0,1,.5-1.1h.1c.3-.5.6-1.1.9-1.7l1.2-.3a47.16,47.16,0,0,1,4.1-4.8c1.8-1.7,3.3-4.2,2.6-6.8a7.11,7.11,0,0,1-.4-2,2.62,2.62,0,0,1-1.7.5A16.62,16.62,0,0,0,288.8,240.2ZM252.4,120.7a5,5,0,0,0-.7.8,3.29,3.29,0,0,1-.3-.6,4.7,4.7,0,0,1,.6-.9A5.74,5.74,0,0,0,252.4,120.7ZM252,92.3c0-.2-.1-.5-.1-.8v-.9c.8.7.6-.3,1-.5a3.29,3.29,0,0,1,.6.6c.4.7.6.5.8-.3a14.63,14.63,0,0,0,.9,1.3l-.2.2c.1,0,.2.1.4.1h.6c-.4.3-.7.4-1,.6.1,0,.1,0,.2.1-.2.5-.3,1-.4,1.3-.5.2-.9.2-1.2.5s-.4.6-.6,1c-.2-.9-.3-1.7-.5-2.3-.5,0-.9-.1-1.3-.1Zm-1,6.6c.8,0,1.1-1.3,2-.9a3.35,3.35,0,0,0,1,0c.5.7,1,1.4,1.5,2-.3.8-.7,1.6-1.1,2.6-1.1.4-2.6.5-3.2-1.2A5.33,5.33,0,0,1,251,98.9Zm-.5,16c.2.7.5,1.1,1.1,1.2.2,0,.3.2.5.4-.1.2-.3.3-.4.5-1.1,1.4-2.5,1.2-3.8.8-1-.3-2-.5-3.2-.8.5-.8.9-1.5,1.4-2.2a2.86,2.86,0,0,1,2.7-1.5C249.8,113.4,250.2,113.8,250.5,114.9Zm-5.4-17c.4-.3.6-.5.8-.5s.3.3.5.5c-.2.2-.3.4-.5.4S245.5,98.2,245.1,97.9Zm2.6-1.6c0-.2.2-.4.5-.8.2.4.5.7.5.9a1.47,1.47,0,0,1-.6.5A.68.68,0,0,1,247.7,96.3Zm-.4-53c.5.6,1.7.1,2,1,.1.3.4.5.5.8-.2.9-.5,1.7-.7,2.4-.8.2-1.7.4-2.7.7-1-.6-2-1.7-1-3.3A6,6,0,0,1,247.3,43.3Zm-2-4.9c.1.2-.1.5-.1.7-.2,0-.5,0-.6-.1s-.1-.4-.1-.9C244.9,38.2,245.3,38.2,245.3,38.4Zm-10.2,75.3c-1.6-.5-2.3-2-3.1-3.4a1.71,1.71,0,0,1,0-1.4c.1-.2.8-.2,1.2-.2,1.2.2,1.8,1.3,2.3,2.4.1.1.1.3.2.4C236.2,112.8,236.1,112.9,235.1,113.7Zm.5-53.5a1.91,1.91,0,0,1-1.8,0,4.67,4.67,0,0,1-.5-1c-.2-.6-.5-1.2-.7-1.8s-.3-1,.3-1.3a1,1,0,0,1,1.3.3c0,.1.1.1.1.2h0a9.8,9.8,0,0,1,1.3,2.2C236,59.1,235.8,59.8,235.6,60.2Zm-4-11.1a3.1,3.1,0,0,1,2.8,1.2,1.65,1.65,0,0,1-.2,2.4,1.38,1.38,0,0,0-.3,1.6c.1.2,0,.4,0,.6h-.6c-1.8,0-2.4-1.2-3-2.5-.4-1-.8-1.9-1.3-3.1C230,49.2,230.8,49.1,231.6,49.1Zm-4.9-13.8a1.94,1.94,0,0,1,1.1-.9c.3,0,.7.5.8.8.6,1.1,0,2.2-.5,3.3-.1.1-.1.3-.2.4-.7,1.2-.7,1.2-2,.9C225.3,38.2,226.1,36.7,226.7,35.3Zm-23.3,72.9c.8,0,.9-.6,1-1.2s.3-1.3,1.1-1.4,1.1.6,1.4,1.2.5,1.1.8,1.7a2.16,2.16,0,0,1,0,2.2,3.36,3.36,0,0,0-.4,2.2c0,.5.2,1.2-.5,1.4a1.07,1.07,0,0,1-1.4-1,2.78,2.78,0,0,0-2.2-2.5c-.4-.1-.6-.8-.9-1.2l.2-.2A1,1,0,0,1,203.4,108.2Zm-8.3-68.4c.2.2.5.4.7.6s-.2.5-.2.5a6,6,0,0,1-1.2-.2A7.05,7.05,0,0,0,195.1,39.8Zm-2.1-10a2.93,2.93,0,0,1,1,.3l-.6.6a7.26,7.26,0,0,1-.9-.5C192.7,30.1,192.9,29.8,193,29.8ZM169.5,94.6c.1,0,.5.3.5.4a4.45,4.45,0,0,1-.6,1.2c-.3-.4-.5-.7-.7-1A2.41,2.41,0,0,1,169.5,94.6Zm-1.3-63.7c.5-.1,1-.2,1.1.5s-.2.9-.8,1.1a.76.76,0,0,1-1-.6C167.3,31.3,167.6,31,168.2,30.9Zm-1.9,4.7c.3.3.6.4.6.6s-.2.5-.4.5a1.14,1.14,0,0,1-.6-.3C165.9,36.2,166.1,36,166.3,35.6Zm-9.7,89c-.2,0-.4-.3-.7-.6.4-.3.6-.5.8-.5s.5.4.4.6A.64.64,0,0,1,156.6,124.6Zm1-30.2a6.07,6.07,0,0,1,.7-1l.4.8a6,6,0,0,1-.8.8C157.8,94.8,157.5,94.6,157.6,94.4Zm1.6,35.1c.2.6.4,1,.5,1.3s-.3.4-.4.6a6,6,0,0,1-.6-1.1C158.6,130.2,158.9,129.9,159.2,129.5Zm.6,15.4a2.77,2.77,0,0,1-.9.1v-.6c.4,0,.7-.1,1.1-.1A.85.85,0,0,0,159.8,144.9Zm1.3-104.2c-.1.1-.4-.1-.6-.2a6,6,0,0,1,.8-.8c.1-.1.4.1.9.3C161.7,40.3,161.4,40.5,161.1,40.7Zm-5.5-13.6a15.37,15.37,0,0,1,1.7-1.9,1.85,1.85,0,0,1,2.2-.4,5.83,5.83,0,0,0,2.6.6c.8,0,1.3.6.9,1.2a3.74,3.74,0,0,1-1.3,1.2,8.45,8.45,0,0,1-1.7.5v.1c-1,0-2.1.1-3.1.1a2,2,0,0,1-1.2-.6C155.5,27.8,155.5,27.3,155.6,27.1Zm.3,9.3c.1-.1.3-.1.6-.2s.4-.1.6-.1.5.1.5.2,0,.4-.2.5c-.5.3-.8,1.1-1.6.5a1.21,1.21,0,0,1-.5-.5C155.5,36.7,155.7,36.5,155.9,36.4Zm-2.1,97.3c.1-.2.2-.5.3-.5a1.33,1.33,0,0,1,.5.3c.2.6,1,1.1.1,1.8a1.61,1.61,0,0,1-.7.4,2.12,2.12,0,0,1-.3-.7c-.1-.2,0-.4,0-.6A1.7,1.7,0,0,1,153.8,133.7Zm-2.3-13c0-.5.1-1.1.8-1a.94.94,0,0,1,.9,1.1c0,.6-.3.9-.9.8S151.5,121.3,151.5,120.7Zm-2.7-77.5a3.55,3.55,0,0,0,.4.9c-.2,0-.5.2-.6.1s-.2-.5-.4-.8A1.42,1.42,0,0,0,148.8,43.2ZM128.4,20.4a.78.78,0,0,1,.4.4,5.36,5.36,0,0,1-.5,1.1c-.3-.4-.4-.6-.7-1C127.9,20.7,128.2,20.4,128.4,20.4ZM26.9,156c-.5,0-.8-.3-.7-.9s.1-1,.8-.9.8.4.8,1S27.4,156.1,26.9,156ZM29,168.7a2.09,2.09,0,0,1-.6.4,4.88,4.88,0,0,1-.3-.7v-.6a1.27,1.27,0,0,1,.1-.6c.1-.2.2-.4.3-.4s.4.2.4.3C29.1,167.6,29.8,168.1,29,168.7ZM16.2,226.9l-.6-.6.4-.4.7.7C16.6,226.7,16.3,227,16.2,226.9ZM26.5,219c-.1.1-.4,0-.6,0a4.87,4.87,0,0,1,.4-1.1c0-.1.4,0,.9-.1A4.2,4.2,0,0,1,26.5,219Zm6.9-103.3c.2-.2.4-.3.6-.5s.3-.1.6-.2.4-.1.6-.1.5.1.5.2,0,.4-.2.5c-.5.3-.8,1.1-1.6.5C33.8,116.1,33.6,115.9,33.4,115.7Zm-3.3,97.6a.88.88,0,0,1-.7-.1c-.1-.1,0-.4,0-.9.4.1.7.1.8.3A.82.82,0,0,1,30.1,213.3Zm.2-4.7c-.5.3-.9.3-1.1-.2-.4-.4-.2-.8.2-1.1s.8-.5,1.2,0S30.8,208.2,30.3,208.6Zm.5-49.9c-.2,0-.4-.3-.7-.6.4-.2.6-.5.7-.5s.4.4.4.5A.45.45,0,0,1,30.8,158.7Zm2.8,18.8a2.77,2.77,0,0,1-.9.1V177c.3,0,.7-.1,1-.1C33.7,177.2,33.7,177.5,33.6,177.5ZM32.7,164a5.91,5.91,0,0,1,.5-.8c.2.6.4.9.5,1.2,0,.1-.2.3-.4.5A1.46,1.46,0,0,1,32.7,164Zm3.7-10.9a11.94,11.94,0,0,0-.8,1.6,2.2,2.2,0,0,1-1.8,1.3,3.81,3.81,0,0,0-2,1c-.4.3-.8.9-1.4.5a1.14,1.14,0,0,1-.1-1.7,3,3,0,0,0,.7-3.3c-.2-.4.2-1,.4-1.5.1,0,.2,0,.2.1.6-.5,1.2-.5,1.6,0s1,.3,1.6.1,1.2-.6,1.8.1C37.1,151.8,36.7,152.4,36.4,153.1ZM118.8,52.6c.2.6.4.9.5,1.2,0,.1-.2.3-.4.5a8.79,8.79,0,0,1-.6-1C118.3,53.2,118.5,53,118.8,52.6Zm.6,13.7c0,.2,0,.5-.1.6a2.77,2.77,0,0,1-.9.1v-.6A3.08,3.08,0,0,1,119.4,66.3ZM116.5,47c.2,0,.4.4.4.5a.64.64,0,0,1-.5.5c-.2,0-.4-.3-.7-.6C116.1,47.2,116.3,47,116.5,47Zm-2.8,10.1a1.27,1.27,0,0,1,.1-.6c.1-.2.2-.4.3-.4s.4.2.4.3c.2.5.9,1,.1,1.6a2.09,2.09,0,0,1-.6.4,4.88,4.88,0,0,1-.3-.7Zm-1.9-12.7c0-.5.1-1,.8-.9s.8.4.8,1-.3.9-.8.8A.72.72,0,0,1,111.8,44.4ZM103.5,51a6.54,6.54,0,0,0,1.3-2.3c.2-.8.9-1.1,1.4-.5a3,3,0,0,1,.8,1.6,10.82,10.82,0,0,1,0,1.8.1.1,0,0,1,.1.1,16.66,16.66,0,0,1-.8,3,1.76,1.76,0,0,1-.9,1,.62.62,0,0,1-.7-.2,16.44,16.44,0,0,1-1.4-2.2A2.11,2.11,0,0,1,103.5,51ZM73.9,119.3c.1.1-.2.5-.2.5a6,6,0,0,1-1.2-.2,7.27,7.27,0,0,1,.8-.9Zm-.2-13.5c.2.4-.7,1.5-1.1,1.5a5,5,0,0,1-1.2-.2c-.7-.2-1.3-.4-2-.6-.5-.2-1-.4-.9-1.2a1,1,0,0,1,1.1-.9h.3a11.76,11.76,0,0,1,2.7.3A1.72,1.72,0,0,1,73.7,105.8ZM72.2,109l-.6.6a7.26,7.26,0,0,1-.9-.5c.2-.2.4-.5.5-.4A5.39,5.39,0,0,1,72.2,109ZM67.8,76.7v-1c.8.7.6-.4,1.1-.5.1.1.5.3.6.6.4.7.6.5.9-.3.4.5.7,1,1,1.4l-.2.2a.6.6,0,0,0,.4.1h.6c-.5.3-.8.5-1.1.7.1,0,.1.1.2.1-.2.6-.3,1.1-.4,1.4a4.78,4.78,0,0,0-1.2.5c-.3.2-.4.7-.6,1-.2-1-.4-1.8-.5-2.5-.5,0-1-.1-1.4-.1a6,6,0,0,1,.8-.8A1.55,1.55,0,0,1,67.8,76.7Zm-3.9,4.4c.3.5.6.8.5,1s-.4.4-.6.6a1,1,0,0,1-.4-.7C63.3,81.8,63.6,81.6,63.9,81.1Zm-2.5,2.1c.2,0,.4.3.5.5-.2.2-.3.5-.5.5s-.4-.2-.9-.5C61,83.4,61.2,83.1,61.4,83.2ZM46.3,109.8c.5-.1,1-.2,1.1.5s-.2.9-.8,1.1a.76.76,0,0,1-1-.6C45.4,110.2,45.7,109.9,46.3,109.8Zm-1.9,4.7c.3.3.6.4.6.6s-.2.5-.4.5a1.14,1.14,0,0,1-.6-.3A2,2,0,0,1,44.4,114.5Zm-1.6,16.6a.78.78,0,0,1,.4.4,5.36,5.36,0,0,1-.5,1.1c-.3-.4-.4-.6-.7-1A3.51,3.51,0,0,1,42.8,131.1Zm-3.4-12.6c.1-.1.4.1.9.3-.5.4-.8.6-1.1.8-.1.1-.4-.1-.6-.2A3.63,3.63,0,0,1,39.4,118.5ZM64.9,349.9a3.36,3.36,0,0,0-.4,2.2c0,.5.2,1.2-.5,1.4a1.07,1.07,0,0,1-1.4-1,2.78,2.78,0,0,0-2.2-2.5c-.4-.1-.6-.8-.9-1.2l.2-.2c-.1-.8.3-1.3.9-1.3.8,0,.9-.6,1-1.2s.3-1.3,1.1-1.4,1.1.6,1.4,1.2.5,1.1.8,1.7A2.64,2.64,0,0,1,64.9,349.9Zm6.9-75.3c-1.6-.5-2.3-2-3.1-3.3a2.25,2.25,0,0,1-.1-1.4c.1-.2.8-.3,1.2-.2,1.2.2,1.8,1.3,2.3,2.4.1.1.1.3.2.4C72.8,273.7,72.8,273.8,71.8,274.6Zm-.2-65.5c-4,1.3-8.6.8-12,4-.9.9-2.5.2-3.7.3-3.2.2-5.8,2-8.4,3.5-2.4,1.4-2.1-.6-2.4-1.4a19,19,0,0,1-1.2-6.2c-.2-1.5-1-2.9-.4-4.6.4-1,.2-2.2-2.3-2.6,2.2-.6,3.6-.4,3.6-2.2,0-.5.9-.7-.3-.9-.8-.1-1-1.1-.6-1.4,2.5-1.8,1-4.5,1.5-6.7.4-1.7.1-3.7-2.9-3.4-3.4.3-5.8-3.9-3.6-6.9,1.4-1.8,1.2-3.9,1.8-5.6a31.14,31.14,0,0,0,1.6-10.2c0-5.1,2.5-8.3,7.3-10.2A6.07,6.07,0,0,0,53,152c1.6-2.8,4.3-3.8,7.6-3.1.8.2,1.7-.8,2.6-1,2.9-.8,5.8-1.4,8.7-2.1.8-.2.3-1.4,1.2-1.5a1.15,1.15,0,0,0,1.2.9,1.8,1.8,0,0,1,2.2,1.1c1.2,2.4,2.6,4.8,3.6,7.3,1.2,3.1,2.5,6.1,5.5,7.7.7.4.9.8.8,1.2-1,4.4,3.8,5.4,5.1,8.4,1.5-1.3,2.3,2.1,4,.5.8-.8,3.9-6.4,3.3-7.4-1.3-2,.6-4.4-.8-6.4-.3-.5.7-1.3,1-.9,1,1.4,3.1,1.9,3.5,3.9.2.9-.5,2.8,1.7,1.2.3-.2,1.4,1.4,2.7.9-1.5.9-4.1,1.3-.4,2.8a2.48,2.48,0,0,1,1.5,2.6c-.3,1.7.9,2.3,2.2,2.8-2.6,2.4-2.5,3,.4,5.8.5.5.6,1.3-.6,1.4-2.1.3-3.6,1.1-2.3,3.7.4.8-.5,1.9-.8,2-2,1.2-1.2,2.9-.8,4.5.5,2.2,1.1,4.4-.5,6.4-.3.4-.1,1,.6,1,1.8,0,.7,1.1.5,1.6-.5,1.4-1.1.1-1.4-.2-1.2-1.1-2.2-2-4.1-1a4.44,4.44,0,0,1-3.4.1c-2.7-.9-3.7,1.3-4.9,2.7-.8,1-1.4,1.8-2.7,1.6-1-.2-2.3-1.3-2.2.9-3.5-.3-4.3,3.7-7.3,4.5S74.8,208.1,71.6,209.1Zm15.9,50.6c.8,0,1.1-1.3,2-1a3.35,3.35,0,0,0,1,0c.5.7,1,1.4,1.5,2-.3.8-.7,1.6-1.1,2.6a2.17,2.17,0,0,1-3.2-1.2A9.34,9.34,0,0,1,87.5,259.7Zm4.2-6.2c-.2.5-.3,1-.4,1.3a7.26,7.26,0,0,0-1.2.5c-.3.2-.4.6-.6,1-.2-.9-.4-1.7-.5-2.3-.5,0-.9-.1-1.3-.1a5.72,5.72,0,0,0,.7-.8c0-.2-.1-.5-.1-.8v-.9c.8.7.6-.3,1-.5a3.29,3.29,0,0,1,.6.6c.4.7.6.5.8-.3a14.63,14.63,0,0,0,.9,1.3l-.2.2c.1,0,.2.1.4.1h.6a3.74,3.74,0,0,1-1,.6C91.6,253.4,91.6,253.4,91.7,253.5Zm-6.5,3.7a1.47,1.47,0,0,1-.6.5c-.1-.2-.4-.4-.4-.6s.2-.4.5-.8C85,256.8,85.3,257.1,85.2,257.2ZM83,258.8c-.2.2-.3.4-.5.4s-.4-.2-.8-.4c.4-.3.6-.5.8-.5S82.8,258.6,83,258.8Zm22.7,83.7c-.2-.2-.2-.5-.4-.8.2-.1.4-.1.6-.2a3.55,3.55,0,0,0,.4.9C106.1,342.5,105.7,342.6,105.7,342.5Zm3.1,18.4a3.29,3.29,0,0,1-.3-.6,4.7,4.7,0,0,1,.6-.9,5.74,5.74,0,0,0,.4.7A5.72,5.72,0,0,1,108.8,360.9Zm5.7-25.8c-.5.3-.8,1.1-1.6.5a1.21,1.21,0,0,1-.5-.5c.2-.2.4-.3.6-.5s.3-.1.6-.2.4-.1.6-.1.5.1.5.2A1.07,1.07,0,0,1,114.5,335.1Zm3.1,3.6a6,6,0,0,1,.8-.8c.1-.1.4.1.9.3-.5.4-.8.6-1.1.8A3.29,3.29,0,0,1,117.6,338.7Zm1.8,23.3c-.3-.4-.4-.6-.7-1a3.51,3.51,0,0,1,.8-.5.78.78,0,0,1,.4.4A1.82,1.82,0,0,1,119.4,362Zm.7-37.2a3.74,3.74,0,0,1-1.3,1.2,8.45,8.45,0,0,1-1.7.5v.1c-1,0-2.1.1-3.1.1a2,2,0,0,1-1.2-.6c-.2-.1-.2-.6,0-.8a15.37,15.37,0,0,1,1.7-1.9,1.85,1.85,0,0,1,2.2-.4,5.83,5.83,0,0,0,2.6.6C120,323.6,120.5,324.2,120.1,324.8Zm3.5,10.2a1.14,1.14,0,0,1-.6-.3c-.1-.2.2-.4.3-.8.3.3.6.4.6.6S123.8,335,123.6,335Zm2-4.3a.76.76,0,0,1-1-.6c-.2-.5.1-.8.6-.9s1-.2,1.1.5S126.2,330.6,125.6,330.7Zm3.9-19.3a1.28,1.28,0,0,1-.7-.5c.2-.5.6-.9.9-1.5.5.5.7.9,1.1,1.3A5.39,5.39,0,0,1,129.5,311.4Zm18.4.5a10.59,10.59,0,0,1-1,1.2c-.2-.3-.4-.5-.7-1,.5-.4.8-.7,1.2-1C147.6,311.4,148,311.8,147.9,311.9Zm2.7,17.1a7.26,7.26,0,0,1-.9-.5c.2-.2.4-.5.5-.4a2.93,2.93,0,0,1,1,.3A3.39,3.39,0,0,0,150.6,329Zm2.1,10.2a6,6,0,0,1-1.2-.2,7.27,7.27,0,0,1,.8-.9c.2.2.5.4.7.6A2.19,2.19,0,0,1,152.7,339.2Zm9.2-60.1c-1.2-.7-2.5,0-3.9-.6v.5c-.1.6-.2,1.4-1.3,1.2s-1.4-.6-1.3-1.4.5-1.2,1.4-1h0c-1.4-.7-2.5,1.1-3.2,2.7-.7-1,.4-1.7-.4-2.4-1.7,1.1.2,3.1-1.1,4.1,1,.8,2-1.7,2.5.2.2.8,1,2.5-.9,2.9-1.2.3-1.3.6-.9,2s1.2,3.2-.4,4.5a.37.37,0,0,0-.1.3c2,2.9-1.1,5-1.1,7.5,0,.4.4,1.5-.7,1.1-.5-.2-1.5.7-1.7-.5a73.09,73.09,0,0,1-1.1-9.4c0-1.7-.6-3.3-.6-5.2,0-3.2,1.6-6.2.7-9.5-1.2.1-2.4.8-3.6-.7-.6-.7-2.5.1-2.8,1.6-.4,1.8-2.3,2.9-2.4,4.9-2.2-1.1-2,1.8-3.5,2.1a1.64,1.64,0,0,0-1.1,2.1c-.4.3-.8.8-1.4.6a10.87,10.87,0,0,1-.8-5.5c.4-2.4.7-2.9-.2-5.2-.7-1.7-1-3.6-1.8-5.6-.7,1.7-1.4,2.6-2.9.8-1-1.2-1.8-.2-2.3.9-.3-4.5-2.6-5.8-6.6-3.9-1.3.6-.5,2.2-1.2,3.3-2.1,3.5-1.7,7.3.1,10.9a2.3,2.3,0,0,1,.2,1.4,4.71,4.71,0,0,0,1.1,4.3c1,1.2-.1,3.4-.6,5.1-.2.5-.5,1.4-.9,1.5-1.1.3-.4,2.4-2.2,1.9s.2-1.3-.2-2.2c-1.5-3.6-3.7-6.9-4.9-10.7a2.29,2.29,0,0,0-3.2-1.3c-3.3,1.3-6.9,2.3-8.3,5.8-.7,1.8-2.1,3.9-.3,6.3a2.73,2.73,0,0,1-.6,3.5c-1.7,1.6-1.1,3.1,0,5.1,1.5,2.6,3,5.4,2.1,8.7-.2.6-.2,1.8.7,1.4,1.8-.9,1.1.3.7.8-.9,1.1,2.8,3.5-1.1,3.6.1.2.1.6.3.7,1.5.8,1.1,2.5,2.1,3.6a9.59,9.59,0,0,1-3.7-2.2,5.18,5.18,0,0,1-1.1-4.4c.7-3.2,0-6.6-.1-9.9,0-1.8-1.6-1.9-2.6-2.7-.2-.2-1.1.1-1.1.1-1-3.3-2.3.1-3.4-.1-.5-.1-.8,1.5-1.7.8-1.1-.8-.6-2-.4-3.1.1-.7,1.4-.8,1.4-2-.9.4-2.7,1.6-2-.8.4-1.3-2.2-2.6.3-3.7.6-.3-.3-.4-.5-.5-2-1.4-3.6-3.7-6.7-2.5-1,.4-1.5-.4-2.2-2.1-.2-.6-.8-.7-1.5-.3-2,1.1-1.9,1-2.3-.9-.5-2.3.1-4.9-1.7-6.9-.6-.6-.6-1.4.7-1.1a1.77,1.77,0,0,0,1.5-.8c1.8-2.7,4-3,6.5-2.2.2-.4.5-.7.7-1.1A2.86,2.86,0,0,1,85,274c.9.1,1.3.3,1.6,1a14.08,14.08,0,0,0,2.6-5c1.2-4,2.1-8.2,3.4-12.2.9-2.8,1.5-5.9.4-9.1-.4-1.3-.9-3.4,1-4.5.9-.5.9-1.1.3-1.7-1.1-1.1.2-1.2.6-1.2a6.23,6.23,0,0,0,3.1-.1c-.4-.3-.5-.9-.1-1.6a2.1,2.1,0,0,0-.1-2.4,1.61,1.61,0,0,1,.7-2.4c1.1-.3,2.2-.3,3.3-.5.3-2.1-.4-4.5,1.1-6.5,1.1-1.5.8-3.8,2.8-4.8.1,0,.2-.2.2-.2-2.2-2.1.7-4.3-.1-6.4-.1-.3-.2-.6,0-.8,2.4-2.5,1.2-6,2.4-8.8.5-1.3.7-2.9,2.9-1.8,1.2.6,1.6-1,2-1.7a9.34,9.34,0,0,0,.4-3.1c1.4,1.2,2.4.5,3.5-.5,2.2-1.9,3.5-4.7,6-6.3-.8-1.2.5-2.2.2-3.4-.7-2.6,2.9-3.7,2.1-6.3.8.7,1.9-1,2.8.6a26.91,26.91,0,0,1,2.3,7.8c.6,3.3.3,6.7,1.5,10,.4,1,2.1,1.3,1.5,2.8,0,.1.8.8.3,1.1-1.8,1.1-.8,2.3-.1,3.3,1.3,1.8.2,5.5,4.2,5.3,1,0,0,1.3,0,2a6.69,6.69,0,0,1-.5,1.9c3.1-.1.5,3.2,2.4,4.1.4.2.5,1.5.4,2.2-.4,3,.8,5,2.9,7a12.28,12.28,0,0,1,3.2,4.8.76.76,0,0,0,.4-.2.73.73,0,0,1,1.2.3c.3.5.1.9-.3,1.3-.2.2-.5.4-.7.6a17.06,17.06,0,0,1,.4,5.1c-.1,3.1,1.2,6.2.8,9.4a.87.87,0,0,0,.9,1c4.2.1,4.9,3.9,7.1,6.2.7.7,1.5,1.9,3,1.6.4-.1,1.5,0,1.7.9s-.6.9-1.1,1.1c-1.6.8-1.7,2.1-.8,3.5.6.9-.1,1.5-.3,2.2-.5,2.2-.2,3.8,2,4.8.7.3,1.4,1.1.9,1.6C160,277.4,162.6,277.8,161.9,279.1Zm.6-25.5a2.33,2.33,0,0,1-.9,1.1.62.62,0,0,1-.7-.2,16.44,16.44,0,0,1-1.4-2.2,1.79,1.79,0,0,1,.2-2.2,5.1,5.1,0,0,0,1.2-2.3c.2-.8.9-1.1,1.4-.5a3,3,0,0,1,.8,1.6,10.8,10.8,0,0,1,0,1.8.1.1,0,0,1,.1.1C163,251.6,162.8,252.6,162.5,253.6Zm7.5,1.8c.1-.2.2-.4.3-.4s.4.2.4.3c.2.5.9,1,.1,1.6a2.09,2.09,0,0,1-.6.4,4.88,4.88,0,0,1-.3-.7c-.1-.2,0-.4,0-.6A1.76,1.76,0,0,1,170,255.4Zm-2.1-12c0-.5.1-1,.8-.9s.8.4.8,1-.3.9-.8.8A.72.72,0,0,1,167.9,243.4Zm1.3,146c-1.6-.5-2.3-2-3.1-3.3a2.25,2.25,0,0,1-.1-1.4c.1-.2.8-.3,1.2-.2,1.2.2,1.8,1.3,2.3,2.4.1.1.1.3.2.4C170.2,388.5,170.2,388.6,169.2,389.4Zm2.7-119.3a8,8,0,0,0-2.2,3.2,1.52,1.52,0,0,1-2.4.7,5,5,0,0,1-1.3-2.2,6.47,6.47,0,0,1,.1-2.4c-.1,0-.1,0-.2-.1.4-1.4.8-2.8,1.3-4.1a2.94,2.94,0,0,1,1.5-1.4,1.28,1.28,0,0,1,1.2.2c.8,1,1.6,2,2.3,3A2.12,2.12,0,0,1,171.9,270.1Zm.7-23.1c-.2,0-.4-.3-.7-.5.3-.2.6-.5.7-.5s.4.4.4.5A.7.7,0,0,1,172.6,247Zm1.1-27.3a3.29,3.29,0,0,1-.3-.6,4.7,4.7,0,0,1,.6-.9,5.74,5.74,0,0,0,.4.7A5,5,0,0,0,173.7,219.7Zm1.3,31.8c.2.6.4.9.5,1.2,0,.1-.2.3-.4.5a8.79,8.79,0,0,1-.6-1C174.4,252.2,174.7,251.9,175,251.5Zm.5,14.3a2.77,2.77,0,0,1-.9.1v-.6c.3,0,.7-.1,1-.1C175.6,265.4,175.6,265.7,175.5,265.8ZM179.8,373c.2,0,.3.3.5.5-.2.2-.3.4-.5.4s-.4-.2-.8-.4C179.4,373.3,179.6,373,179.8,373Zm11.5,21c.2.4-.7,1.4-1.1,1.4a4.25,4.25,0,0,1-1.1-.2,12.66,12.66,0,0,1-1.8-.6c-.4-.2-.9-.4-.8-1.1s.5-.9,1-.8h.2a19.48,19.48,0,0,1,2.5.2A2.35,2.35,0,0,1,191.3,394Zm-5.5-27v-.9c.8.7.6-.3,1-.5a3.29,3.29,0,0,1,.6.6c.4.7.6.5.8-.3a14.63,14.63,0,0,0,.9,1.3l-.2.2c.1,0,.2.1.4.1h.6a3.74,3.74,0,0,1-1,.6c.1,0,.1,0,.2.1-.2.5-.3,1-.4,1.3a7.26,7.26,0,0,0-1.2.5c-.3.2-.4.6-.6,1-.2-.9-.4-1.7-.5-2.3-.5,0-.9-.1-1.3-.1a5.72,5.72,0,0,0,.7-.8Zm-.9,7.5c.8,0,1.1-1.3,2-1a3.35,3.35,0,0,0,1,0c.5.7,1,1.4,1.5,2-.3.8-.7,1.6-1.1,2.6a2.17,2.17,0,0,1-3.2-1.2A6.35,6.35,0,0,1,184.9,374.5Zm-2.8-3.4c.2.4.5.7.5.9a1.47,1.47,0,0,1-.6.5c-.1-.2-.4-.4-.4-.6A5.91,5.91,0,0,1,182.1,371.1Zm.6,17.9c1.1.1,1.5.4,1.8,1.6.2.7.5,1.1,1.1,1.2.2,0,.3.2.5.4-.1.2-.3.3-.4.5-1.1,1.4-2.5,1.2-3.8.8-1-.2-2-.5-3.2-.8.5-.8.9-1.5,1.4-2.2A2.72,2.72,0,0,1,182.7,389Zm1.6-168.3c-.3-.4-.4-.6-.7-1a3.51,3.51,0,0,1,.8-.5.78.78,0,0,1,.4.4A5.36,5.36,0,0,1,184.3,220.7Zm40.3.8c-1.7-.6-2.5-2.2-3.3-3.6a2.57,2.57,0,0,1-.1-1.5c.1-.2.8-.3,1.2-.2,1.3.3,1.9,1.4,2.5,2.6.1.1.1.3.2.4C225.7,220.6,225.7,220.6,224.6,221.5Zm17.1-16.1c.8,0,1.2-1.4,2.2-1a3.35,3.35,0,0,0,1,0c.6.8,1.1,1.5,1.6,2.1-.4.9-.7,1.7-1.2,2.8-1.1.5-2.8.6-3.4-1.3A7.25,7.25,0,0,1,241.7,205.4Zm.9,19.6c-1.2,1.5-2.7,1.3-4.1.9-1.1-.3-2.2-.6-3.5-.9.6-.9,1-1.6,1.5-2.3a3.15,3.15,0,0,1,2.9-1.6c1.2.1,1.6.5,2,1.7.2.7.5,1.2,1.2,1.3.2,0,.3.3.5.4A1.18,1.18,0,0,0,242.6,225Zm4.8,3a5,5,0,0,1-1.2-.2l-2-.6c-.5-.2-1-.4-.9-1.2a1,1,0,0,1,1.1-.9h.3a11.76,11.76,0,0,1,2.7.3,2,2,0,0,1,1.1,1.1C248.7,226.9,247.8,228,247.4,228Zm14,45c-1.6-.5-2.3-2-3.1-3.4a1.71,1.71,0,0,1,0-1.4c.1-.2.8-.2,1.2-.2,1.2.2,1.8,1.3,2.3,2.4.1.1.1.3.2.4C262.4,272.1,262.4,272.2,261.4,273Zm10.8-15.3c-.2,0-.4-.2-.8-.4.4-.3.6-.5.8-.5s.3.3.5.5C272.5,257.4,272.3,257.7,272.2,257.7Zm2.1-1.4c-.1-.2-.4-.4-.4-.6s.2-.4.5-.8c.2.4.5.7.5.9S274.5,256.1,274.3,256.3Zm6.2,5.6c-1.1.4-2.6.5-3.2-1.2a6.38,6.38,0,0,1-.1-2.4c.8,0,1.1-1.3,2-.9a3.35,3.35,0,0,0,1,0c.5.7,1,1.4,1.5,2A14.7,14.7,0,0,0,280.5,261.9Zm.7-10c.1,0,.1,0,.2.1-.2.5-.3,1-.4,1.3-.5.2-.9.2-1.2.5s-.4.6-.6,1c-.2-.9-.3-1.7-.5-2.3-.5,0-.9-.1-1.3-.1a5.72,5.72,0,0,0,.7-.8c0-.2-.1-.5-.1-.8v-.9c.8.7.6-.3,1-.5a3.29,3.29,0,0,1,.6.6c.4.7.6.5.8-.3a14.63,14.63,0,0,0,.9,1.3l-.2.2c.1,0,.2.1.4.1h.6A2.36,2.36,0,0,1,281.2,251.9Z" transform="translate(-11.85 -14.35)"/>
  <style>
@media (prefers-color-scheme: dark) {
    path {
        fill: white !important;
    }
}
@media (prefers-color-scheme: light) {
    path {
        fill: black !important;
    }
}
  </style>
</svg>