<svg id="Layer_1" data-name="Layer 1" xmlns="http://www.w3.org/2000/svg" viewBox="0 0 489.91 152.49"><defs><style>.cls-1{fill:#fff;}</style></defs><path class="cls-1" d="M49,79.62H37.81V126H49q5.43,0,8.15-2.93c1.82-1.94,2.72-4.79,2.72-8.55V91.09c0-3.76-.9-6.61-2.72-8.55S52.57,79.62,49,79.62Zm3.57,35.26a5,5,0,0,1-1,3.45,3.5,3.5,0,0,1-2.75,1.06H45.1V86.25h3.71a3.53,3.53,0,0,1,2.75,1.06,5,5,0,0,1,1,3.45Z" transform="translate(-5.05 -23.75)"/><path class="cls-1" d="M78.38,79.62H67.24V126H78.37q5.44,0,8.16-2.93c1.82-1.94,2.72-4.79,2.72-8.55V91.09q0-5.64-2.72-8.55C84.72,80.59,82,79.62,78.38,79.62ZM82,114.89a5.07,5.07,0,0,1-1,3.44,3.55,3.55,0,0,1-2.75,1.06H74.52V86.25h3.72A3.51,3.51,0,0,1,81,87.31a5,5,0,0,1,1,3.45Z" transform="translate(-5.05 -23.75)"/><path class="cls-1" d="M21.69,61.23a56.84,56.84,0,0,0,80.39,80.38l.4-.4a56.84,56.84,0,0,0-80.79-80Zm78,78a53.51,53.51,0,1,1,0-75.68A53.51,53.51,0,0,1,99.73,139.26Z" transform="translate(-5.05 -23.75)"/><path class="cls-1" d="M26.53,66.07a50,50,0,1,0,70.71,0A50,50,0,0,0,26.53,66.07Zm35.36,82a46.66,46.66,0,1,1,46.66-46.66A46.71,46.71,0,0,1,61.89,148.08Z" transform="translate(-5.05 -23.75)"/><path class="cls-1" d="M449.54,109.13a61,61,0,0,1-9.48,1.92,1,1,0,0,1-1.08-.88,1,1,0,0,1,.29-.8l3.26-3.16a.57.57,0,0,0,0-.82.54.54,0,0,0-.29-.15l-5.87-1.2a.25.25,0,0,1-.19-.3.31.31,0,0,1,.12-.16l5.42-3a.58.58,0,0,0,.29-.42.57.57,0,0,0-.15-.48l-.89-1a1.46,1.46,0,0,1,.06-2.07,1.39,1.39,0,0,1,.74-.38A33.4,33.4,0,0,0,447,94.89c18.8-6.64,21.76-4.86,26.65-.21l.33.31.45,0c.06,0,5.37-.14,9.21,2.62a1,1,0,0,1,.25,1.4,1,1,0,0,1-.93.43c-2.46-.26-5.57-.36-7.88.54a2.07,2.07,0,0,0,2.38,1.28,20.7,20.7,0,0,1,8.65.27l1.25-.14a.83.83,0,0,0,.74-.9.92.92,0,0,0-.14-.39,16.07,16.07,0,0,1-1-1.56c-3.24-6.44-10.39-5.59-12.28-5.49-5.58-5.21-9.73-6.48-28.3.08a32.48,32.48,0,0,1-29.76-4.46c-4.71-3.56-8.12-8.55-12.81-12.23a49.07,49.07,0,0,0-14.05-7.86,37.93,37.93,0,0,0-6.62-1.65c-8.48-1.29-14,1-14.23,1.05l-.31.13-.16.29a8.31,8.31,0,0,0-.79,6.87,13.61,13.61,0,0,0,4.82,6.22A16.41,16.41,0,0,0,379,84.92c4.85,1,9.81,2.76,13.51,6.18a39.89,39.89,0,0,1,4,4.51,54.79,54.79,0,0,0,10.7,10.63c7.49,5.65,18,7.07,26.64,7.07,5.68,0,11.8-.46,15.27-.77a2.35,2.35,0,0,0,1.89-1.26A1.39,1.39,0,0,0,449.54,109.13ZM434,97.61a.88.88,0,0,1,.92-.79c.74,0,1.5,0,2.27,0a.86.86,0,0,1,.69.27l2.07,2.19a.69.69,0,0,1,0,1l-.14.11L436,102.45a.69.69,0,0,1-.94-.25l-1.21-2.06a.72.72,0,0,1-.09-.43Zm-4.5-1.21a.85.85,0,0,1,.52-.07c.67.11,1.36.22,2.06.3a.88.88,0,0,1,.77,1l-.18,1.61a.4.4,0,0,1-.38.36l-1.92.19a.41.41,0,0,1-.4-.21l-.9-2A.88.88,0,0,1,429.45,96.4Zm-2.64-.61A.56.56,0,0,1,427,96l1.92,4.22a.58.58,0,0,1,0,.41l-.71,2.21a.57.57,0,0,1-.54.38h-2.3a.56.56,0,0,1-.52-.34l-1.05-2.35a.62.62,0,0,1,0-.5h0L426.08,96A.54.54,0,0,1,426.81,95.79Zm-6.92.4.43-1.88a.89.89,0,0,1,1.06-.67.64.64,0,0,1,.18.06c.47.21,1,.42,1.46.62l1.15.44a.9.9,0,0,1,.57,1.13l-.06.14h0l-1.91,3.56a.42.42,0,0,1-.44.21L421,99.54a.41.41,0,0,1-.32-.3l-.77-2.85A.34.34,0,0,1,419.89,96.19Zm-.38,3.85,0,0-1.92,2.55a.41.41,0,0,1-.58.07l0,0-1.37-1.37a.4.4,0,0,1-.12-.29V99a.45.45,0,0,1,.23-.39l2.75-1.31a.42.42,0,0,1,.55.19.19.19,0,0,1,0,.07l.56,2.08A.4.4,0,0,1,419.51,100Zm-1.55-8a.42.42,0,0,1,.38,0l.87.48a.44.44,0,0,1,.22.48l-.61,2.7a.37.37,0,0,1-.22.28l-3.29,1.59a.42.42,0,0,1-.38,0l-1.07-.64a.41.41,0,0,1-.17-.5l1-2.75a.4.4,0,0,1,.22-.22Zm-3.67,6.81v1.3a.56.56,0,0,1-.56.57h0l-4.74-.18a.58.58,0,0,1-.55-.59v0l.12-1.85a.58.58,0,0,1,.58-.53h3.39a.54.54,0,0,1,.3.08l1.21.73A.55.55,0,0,1,414.29,98.86Zm-.59-9.14a.44.44,0,0,1,.51-.36.42.42,0,0,1,.19.09c.47.36,1.11.83,1.92,1.35a.45.45,0,0,1,.12.62.53.53,0,0,1-.2.16l-1.3.6a.57.57,0,0,1-.69-.16l-.61-.74a.58.58,0,0,1-.12-.46Zm-.25,3.19a.58.58,0,0,1,.09.57l-1,2.55a.58.58,0,0,1-.53.39h-3a.57.57,0,0,1-.57-.59.39.39,0,0,1,0-.15l.53-1.92a.6.6,0,0,1,.33-.38l2.94-1.27a.57.57,0,0,1,.67.17Zm-2.29-6.82c.49.55,1,1.12,1.48,1.71a.45.45,0,0,1,.1.35l-.38,2.39A.57.57,0,0,1,412,91L409.2,92.2a.57.57,0,0,1-.68-.17l-.83-1a.62.62,0,0,1-.12-.41l.39-4.12a.58.58,0,0,1,.57-.52h2.3A.45.45,0,0,1,411.16,86.09Zm-3.26,7.35-.75,2.69a.48.48,0,0,1-.43.34l-3.36.19a.47.47,0,0,1-.5-.45v-.06l.2-2.4a.45.45,0,0,1,.27-.38l3.11-1.5A.48.48,0,0,1,407,92l.79,1A.46.46,0,0,1,407.9,93.44Zm-2.07-12.75a.31.31,0,0,1,.1,0c1.16,1.07,2.35,2.22,3.54,3.46a.34.34,0,0,1,0,.48.32.32,0,0,1-.27.11h-4.82a.43.43,0,0,1-.45-.44.57.57,0,0,1,0-.18l1.39-3.29A.34.34,0,0,1,405.83,80.69Zm-1.77-1.55.38.34a.35.35,0,0,1,.1.38l-1.87,4.51a.45.45,0,0,1-.5.27l-3-.57a.45.45,0,0,1-.35-.53h0l.49-2.25a.46.46,0,0,1,.25-.31l4.11-1.88A.36.36,0,0,1,404.06,79.14ZM397,77.45l.73-2.4a.34.34,0,0,1,.42-.24l.1,0h0q2.06,1.31,4.22,3a.35.35,0,0,1,.06.49.32.32,0,0,1-.13.1l-3.07,1.4a.44.44,0,0,1-.51-.1l-1.7-1.83A.47.47,0,0,1,397,77.45Zm1.2,3.61-.52,2.37a.45.45,0,0,1-.47.35l-5.28-.32a.44.44,0,0,1-.41-.44V80.61a.46.46,0,0,1,.28-.42l4-1.53a.43.43,0,0,1,.49.12l1.77,1.89A.5.5,0,0,1,398.21,81.06Zm-3.3-8.15c.57.29,1.13.61,1.71,1a.34.34,0,0,1,.15.38l-.89,2.94a.46.46,0,0,1-.27.29l-3.56,1.37a.44.44,0,0,1-.58-.26l0-.12-.16-2.84a.46.46,0,0,1,.2-.38h0l3.07-2.3A.33.33,0,0,1,394.91,72.91Zm-20-4.17a.45.45,0,0,1,.36-.22,30.3,30.3,0,0,1,3.81-.09.49.49,0,0,1,.46.53.47.47,0,0,1,0,.17h0l-1.09,2.3a.49.49,0,0,1-.65.24.72.72,0,0,1-.15-.11,15.53,15.53,0,0,0-2.57-2.14A.48.48,0,0,1,375,68.74Zm3.9,13.35a.71.71,0,0,1-.83.58h0c-.8-.38-7.09-3.45-8.59-8.06a6.16,6.16,0,0,1,.27-4.6,1.13,1.13,0,0,1,.67-.58,1.08,1.08,0,0,1,.71,0C373.25,70.28,380.36,73.67,378.85,82.09Zm.5-9.17a.63.63,0,0,1,0-.19c.41-1,1.25-3,1.58-3.83a.49.49,0,0,1,.5-.3c.48.05,1,.11,1.47.19l.93.16a.48.48,0,0,1,.36.35h0l1,3.46a.45.45,0,0,1-.3.55l-.12,0-5,.08A.48.48,0,0,1,379.35,72.92Zm5.45,8.41v2.4a.58.58,0,0,1-.58.58.63.63,0,0,1-.19,0c-.9-.3-1.86-.58-2.9-.86a.57.57,0,0,1-.42-.67c0-.15.06-.29.08-.44a.56.56,0,0,1,.36-.41v0l3.05-1.16a.45.45,0,0,1,.57.27.34.34,0,0,1,0,.2Zm.68-6.36-.43,4a.46.46,0,0,1-.29.39l-3.1,1.15a.47.47,0,0,1-.62-.28.43.43,0,0,1,0-.19,11.88,11.88,0,0,0-.9-4.75.49.49,0,0,1,.24-.65.45.45,0,0,1,.2,0l4.49-.08a.45.45,0,0,1,.45.44Zm.44,6.46.69-6.39a.46.46,0,0,1,.49-.4l.09,0,2.63.79a.44.44,0,0,1,.32.39l.2,3.45a.46.46,0,0,1-.22.41l-3.53,2.1a.46.46,0,0,1-.61-.18.59.59,0,0,1-.05-.19Zm4.46,2.44V84L390,85.66a.83.83,0,0,1-1,.63.62.62,0,0,1-.19-.07q-1.07-.54-2.31-1a.85.85,0,0,1-.53-.77v-.62a.44.44,0,0,1,.22-.39h0l3.56-2.09a.43.43,0,0,1,.61.16.57.57,0,0,1,.07.22Zm0-9.47h0l-3.57-1.15a.44.44,0,0,1-.29-.3l-.84-2.84a.5.5,0,0,1,.33-.62.61.61,0,0,1,.27,0,38.69,38.69,0,0,1,6.59,2.38.5.5,0,0,1,.23.66.43.43,0,0,1-.15.18l-2.14,1.62A.45.45,0,0,1,390.36,74.4Zm3.56,15.35a1.1,1.1,0,0,1-.21-.14,19.93,19.93,0,0,0-2.45-1.92.86.86,0,0,1-.35-.9v0l.42-1.83a.44.44,0,0,1,.46-.34l4.72.28a.45.45,0,0,1,.43.46.53.53,0,0,1,0,.18l-1.84,3.84A.85.85,0,0,1,393.92,89.75Zm2,2.12-.15-.17a.82.82,0,0,1-.13-.9h0l2.61-5.42a.44.44,0,0,1,.49-.25l2.88.58a.45.45,0,0,1,.35.52s0,0,0,.06l-1,3.07a.41.41,0,0,1-.17.22c-1.38,1-2.85,1.92-3.77,2.47A.83.83,0,0,1,395.92,91.87Zm5.75,4.72a.84.84,0,0,1-1.48.48c-.78-.91-1.5-1.8-2.19-2.66v0l-.27-.33a.83.83,0,0,1,.12-1.18l.09-.06c.65-.39,1.54-1,2.73-1.79a.46.46,0,0,1,.63.12l0,.07.62,1.38a.41.41,0,0,1,0,.22Zm.39-6.59a.44.44,0,0,1,0-.32l1.15-3.43a.47.47,0,0,1,.43-.31h2.79a.44.44,0,0,1,.44.45v0l-.38,3.92a.47.47,0,0,1-.25.36L403.47,92a.46.46,0,0,1-.6-.22h0Zm3.25,12.24c-1-.84-1.83-1.66-2.6-2.44a.44.44,0,0,1-.11-.33v0l.1-1.13a.58.58,0,0,1,.54-.53l3.56-.2a.59.59,0,0,1,.61.55.2.2,0,0,1,0,.07l-.16,2.42a.53.53,0,0,1-.15.36l-1.15,1.22A.44.44,0,0,1,405.31,102.24Zm6.15,4.44-.08,0a24.6,24.6,0,0,1-3-1.94c-.51-.39-1-.77-1.46-1.15a.44.44,0,0,1,0-.62v0l1-1.06a.59.59,0,0,1,.45-.18l4.4.17a.58.58,0,0,1,.56.59.85.85,0,0,1,0,.17l-1.2,3.79A.44.44,0,0,1,411.46,106.68Zm6.2.08-.4,1.39a.9.9,0,0,1-1.12.59h0c-.85-.29-1.67-.62-2.48-1a.88.88,0,0,1-.47-1.08l1.38-4.38a.23.23,0,0,1,.29-.15.15.15,0,0,1,.09.06l1.85,1.85a.6.6,0,0,1,.14.21l.75,2.14A.73.73,0,0,1,417.66,106.76Zm5.65,2.86a.88.88,0,0,1-1,.71c-1.11-.21-2.22-.45-3.31-.74a.88.88,0,0,1-.62-1.08v0l.52-1.76a.65.65,0,0,0,0-.34h0l-.77-2.15a.55.55,0,0,1,.08-.54l2.17-2.87a.4.4,0,0,1,.38-.14l1.92.35a.35.35,0,0,1,.28.22l1.28,2.88a.71.71,0,0,1,.05.38Zm4.34.8a.89.89,0,0,1-.92.56l-1.53-.18a.89.89,0,0,1-.78-1s0,0,0-.06l.92-4.88a.6.6,0,0,1,.58-.48h1.84a.58.58,0,0,1,.55.39l.66,1.79a.61.61,0,0,1,0,.42Zm4.73-2.38-.38,2.48a.9.9,0,0,1-.91.77l-1.25-.06a.9.9,0,0,1-.83-1,1,1,0,0,1,.06-.25l.89-2.34a.4.4,0,0,1,.41-.25l1.66.16a.38.38,0,0,1,.36.4A.43.43,0,0,1,432.38,108Zm-.06-1.58h0l-1.77-.17a.73.73,0,0,1-.62-.47l-.65-1.77a.79.79,0,0,1,0-.48l.7-2.18a.71.71,0,0,1,.62-.49l1.74-.18a.72.72,0,0,1,.7.36l1.24,2.11a.73.73,0,0,1,0,.73L433,106.1A.72.72,0,0,1,432.32,106.46Zm2.94,4.85h-1.19a.9.9,0,0,1-.9-.88c0-.05,0-.09,0-.14l.45-2.89a.44.44,0,0,1,.07-.19l1.15-2a.43.43,0,0,1,.46-.21l4.81,1a.42.42,0,0,1,.34.51.48.48,0,0,1-.12.22l-4.48,4.37A.84.84,0,0,1,435.26,111.31Z" transform="translate(-5.05 -23.75)"/><path class="cls-1" d="M366.41,89l.07-.15a2,2,0,0,0-.15-2.12c-2.53-3.46-9.14-11.45-15.69-10.75l-.26,0-.21.16c-.12.08-12,9.1-2,24.43,6.11,9.41,5.68,13.59,4.88,15.24a4.37,4.37,0,0,0,.38,4.5l5.09,6.9c1.26,1.72,3.07,4.23,5.21,4.23h0c2.11,0,4.18-2.46,5.45-4.14,3.12-4.16,5.83-11.33,1-21.88C364.68,93.26,365.9,89.76,366.41,89ZM368,105.21a.08.08,0,0,0,0,0l.43,1a32.27,32.27,0,0,1,1.38,3.58.67.67,0,0,1-.45.84h0l-1,.27a.53.53,0,0,1-.44-.05l-2.59-1.45a.58.58,0,0,1-.28-.62l.62-2.92a.6.6,0,0,1,.3-.38l1.07-.56A.68.68,0,0,1,368,105.21Zm-8.64,2.9a.6.6,0,0,1-.09-.59l1.33-3.18a.57.57,0,0,1,.74-.31h0l2.82,1.3a.58.58,0,0,1,.33.64l-.63,2.87a.57.57,0,0,1-.28.38l-1.89,1a.58.58,0,0,1-.72-.14Zm.89,3.51-1,1.7a.57.57,0,0,1-.29.24l-2.73,1a.61.61,0,0,1-.79-.35.75.75,0,0,1,0-.26,13.52,13.52,0,0,0-.71-4.67.62.62,0,0,1,.41-.77.51.51,0,0,1,.17,0H358a.59.59,0,0,1,.45.21l1.82,2.24A.56.56,0,0,1,360.28,111.62Zm-2.89-23-1.75,2.53a.58.58,0,0,1-.8.14l-.06,0-3.11-2.92a.57.57,0,0,1,0-.81l0,0,2.22-2a1,1,0,0,1,1.47.06,19.59,19.59,0,0,0,1.82,1.71A1,1,0,0,1,357.39,88.58Zm1,.56a1,1,0,0,1,1.32-.34c.3.14.6.26.91.38a10.22,10.22,0,0,0,1.91.36.45.45,0,0,1,.4.5.47.47,0,0,1-.11.25L360.43,93a.59.59,0,0,1-.5.19l-3-.39a.56.56,0,0,1-.5-.64.46.46,0,0,1,.1-.25ZM353.91,92a.58.58,0,0,1,0,.82.57.57,0,0,1-.28.16L349.07,94a.57.57,0,0,1-.69-.42.61.61,0,0,1,.05-.4l1.87-3.61a.58.58,0,0,1,.78-.25l.12.09ZM351,94.9a.61.61,0,0,1,.34-.21h0l3.88-.92h.2l3,.39a.56.56,0,0,1,.5.64.58.58,0,0,1-.09.25l-.74,1.11a.52.52,0,0,1-.17.16l-3,1.92a.56.56,0,0,1-.67,0l-3.14-2.5A.58.58,0,0,1,351,94.9Zm4.11,4.89a.58.58,0,0,1,.27-.49l2.73-1.77a.58.58,0,0,1,.62,0l2,1.29a.56.56,0,0,1,.24.67l-.77,2.2a.56.56,0,0,1-.6.39l-4-.44a.57.57,0,0,1-.52-.57Zm5.58,13.42,0,0h0l.83-1.39a.5.5,0,0,1,.22-.21l2.35-1.28a.56.56,0,0,1,.56,0l2.46,1.37a.58.58,0,0,1,.29.62l-.25,1.27a.57.57,0,0,1-.44.45l-3.69.85a.65.65,0,0,1-.39,0l-1.71-.83A.58.58,0,0,1,360.67,113.21Zm5-14c.38,1.15.83,2.33,1.37,3.64h0a.89.89,0,0,1-.44,1.14c-.5.22-1,.49-1,.49a.55.55,0,0,1-.5,0l-3.46-1.59a.6.6,0,0,1-.3-.72l.86-2.47a.59.59,0,0,1,.46-.38l2.61-.39A.41.41,0,0,1,365.65,99.17Zm-.58-1.88a.43.43,0,0,1-.29.52h0l-2.57.37a.57.57,0,0,1-.38-.08l-2.06-1.31a.58.58,0,0,1-.18-.8h0l1.15-1.58,2.62-2.92a.41.41,0,0,1,.58,0,.41.41,0,0,1,.14.3A23.75,23.75,0,0,0,365.07,97.29Zm-11.79-19a.67.67,0,0,1,.57,0c3.48,1.21,7.2,4.73,10.06,8.4v0a.64.64,0,0,1-.11.89.65.65,0,0,1-.38.13,5.68,5.68,0,0,1-2.16-.33c-3.5-1.22-6.49-5.38-8.18-8.19A.64.64,0,0,1,353.28,78.33Zm-6.08,4.84a14.2,14.2,0,0,1,2.25-3.66,1,1,0,0,1,1.47-.11,1.09,1.09,0,0,1,.22.26l0,0a39.38,39.38,0,0,0,2.24,3.37,1,1,0,0,1-.13,1.39l-2.47,2.26a.57.57,0,0,1-.77,0l-2.54-2.35A1,1,0,0,1,347.2,83.17Zm-.38,9.49a.57.57,0,0,1-.29-.37,14.81,14.81,0,0,1-.21-6.25.56.56,0,0,1,.64-.45.57.57,0,0,1,.28.14l2.23,2.09a.58.58,0,0,1,.12.69l-2,3.91A.56.56,0,0,1,346.82,92.66Zm5.26,10.64a.64.64,0,0,1-.13-.15c-.62-1.13-1.34-2.33-2.17-3.62a26.33,26.33,0,0,1-1.86-3.32.55.55,0,0,1,.23-.75.42.42,0,0,1,.14-.06v0a.61.61,0,0,1,.49.1l5,3.78a.59.59,0,0,1,.23.46v1.94a.59.59,0,0,1-.14.38l-1,1.15A.55.55,0,0,1,352.08,103.3Zm1.55,3.22a5.67,5.67,0,0,0-.34-.77h0a1.43,1.43,0,0,1,.2-1.51l1.09-1.29a.54.54,0,0,1,.5-.2l4,.43a.57.57,0,0,1,.51.63.47.47,0,0,1,0,.16l-1.26,3a.57.57,0,0,1-.53.36h-2.79A1.42,1.42,0,0,1,353.63,106.52ZM364,129.64v0h-.28c-1.54,0-2.79-2.35-3.69-3.58L355,119.17a2.44,2.44,0,0,1-.19-2.52c.05-.1.09-.2.14-.31l4.38-1.64a.55.55,0,0,1,.45,0l2.44,1.18a.61.61,0,0,1,.31.39l1.33,5.58a.56.56,0,0,0,.15.27L367.8,126C366.89,127.08,365.59,129.64,364,129.64Zm6.09-8.19a15.91,15.91,0,0,1-1.29,2.93.53.53,0,0,1-.72.2.27.27,0,0,1-.12-.09l-2-1.95a.59.59,0,0,1,0-.82.56.56,0,0,1,.27-.15l3.18-.81a.54.54,0,0,1,.65.4A.48.48,0,0,1,370.1,121.45Zm.2-2.1-5,1.27a.58.58,0,0,1-.7-.41v0l-.87-3.64a.58.58,0,0,1,.42-.69l2.89-.72a.55.55,0,0,1,.56.16l3,3.16a.53.53,0,0,1,.13.45A.52.52,0,0,1,370.3,119.35Zm.11-7.24s0,0,0,.06c.12.81.33,2.3.42,3.58a.51.51,0,0,1-.51.53.49.49,0,0,1-.39-.16h0l-1.55-1.67a.59.59,0,0,1-.15-.51l.31-1.53a.59.59,0,0,1,.4-.45l.81-.22A.51.51,0,0,1,370.41,112.11Z" transform="translate(-5.05 -23.75)"/><path class="cls-1" d="M207.87,141.64l-.17-.1-.2,0c-8.9-1-15.6-4.07-19.39-9A14.33,14.33,0,0,1,185,125.4a1,1,0,0,0-.61-.85c-8.3-3.25-15,2.2-15.25,2.44a.92.92,0,0,0-.34.86c.06.49,1.69,12.05,13.39,20.42,10.14,7.27,29.3,9.76,30.1,9.86a1,1,0,0,0,1-.61C217.29,147.16,208,141.7,207.87,141.64Zm-7.41,2.18.32-.54a1.45,1.45,0,0,1,1.54-.67l1.88.39a1.43,1.43,0,0,1,1.16,1.65v0c-.06.27-.11.57-.15.88a1.44,1.44,0,0,1-1,1.2h0l-1.39.42a1.27,1.27,0,0,1-1.42-.52l-.89-1.37A1.37,1.37,0,0,1,200.46,143.82Zm-12.23-7.19a.78.78,0,0,1,1.07-.08,21.52,21.52,0,0,0,2.8,2.07.77.77,0,0,1,.26,1.06,1.07,1.07,0,0,1-.26.26v0l-2.69,1.59a1,1,0,0,1-1,0l-1.26-.62a1.13,1.13,0,0,1-.6-.85l-.07-.71a1.32,1.32,0,0,1,.32-1Zm-1-2.18a1.92,1.92,0,0,0,.18.22.92.92,0,0,1,0,1.22l-1.4,1.62a1.35,1.35,0,0,1-1.11.46l-3-.21a1.35,1.35,0,0,1-1.18-.91l-.15-.43a1.1,1.1,0,0,1,.4-1.25h0l1.12-.83a1.18,1.18,0,0,1,.72-.22h3.68A1,1,0,0,1,187.19,134.45Zm-10.27.12a1.1,1.1,0,0,1-1-1l-.29-2.53h.28a12.14,12.14,0,0,0,2.54-.29,14.26,14.26,0,0,0,1.38-.39.77.77,0,0,1,1,.49h0l.5,1.62a1.11,1.11,0,0,1-.39,1.21l-1.12.83a1.13,1.13,0,0,1-.77.25v0Zm7-5.55a.82.82,0,0,1,.12.2,17.19,17.19,0,0,0,1.32,2.69.75.75,0,0,1-.7,1.17l-1.24-.07a1.1,1.1,0,0,1-1-.77l-.61-2a.77.77,0,0,1,.33-.88c.25-.16.47-.32.68-.48A.76.76,0,0,1,183.92,129Zm-1.21-3h0c-.2.66-1.07,2.16-4.65,2.94s-5.64-.51-6.49-1.28A14,14,0,0,1,182.71,126Zm-8.8,9.52a.28.28,0,0,1-.39-.06l0,0a31.06,31.06,0,0,1-2.07-5,.28.28,0,0,1,.18-.34.31.31,0,0,1,.21,0,8.27,8.27,0,0,0,2.27.79.53.53,0,0,1,.43.48h0l.32,2.75a1.1,1.1,0,0,1-.43,1Zm3.88,4.88a.72.72,0,0,1-1,0,.6.6,0,0,1-.08-.08,32.1,32.1,0,0,1-2.11-3.07.71.71,0,0,1,.19-1l.59-.45a1.1,1.1,0,0,1,.77-.21l2.38.24a1.09,1.09,0,0,1,.93.73l.24.7a1.34,1.34,0,0,1-.29,1.35Zm4.05,3.62a1.38,1.38,0,0,1-1.85,0c-.4-.38-.79-.76-1.15-1.15a1.38,1.38,0,0,1,0-1.89h0l1.53-1.66a1.33,1.33,0,0,1,1.08-.42l2.68.18a1.34,1.34,0,0,1,1.25,1.25,1.08,1.08,0,0,1-.38.89Zm3.95,4.22a1,1,0,0,1-.21-.09c-.76-.44-1.51-.92-2.22-1.43-.22-.15-.43-.3-.63-.46a.91.91,0,0,1-.21-1.27l.14-.15,0,0,2.94-2.63a1.1,1.1,0,0,1,1.21-.16l.64.32a1.09,1.09,0,0,1,.56,1.26l-1.11,4A.93.93,0,0,1,185.79,148.23Zm2.27,1.21-.07,0a.49.49,0,0,1-.25-.57l1.56-5.57a1.09,1.09,0,0,1,.49-.64l2.31-1.36a.51.51,0,0,1,.76.45v2.68a1,1,0,0,1-.26.69l-4,4.22A.46.46,0,0,1,188.06,149.44Zm7.55,2.87a.65.65,0,0,1-.31,0c-1.66-.54-3.33-1.15-4.93-1.82a.68.68,0,0,1-.36-.9.92.92,0,0,1,.13-.21l2.88-3a1,1,0,0,1,1.27-.22l.42.23a1,1,0,0,1,.52.69l.88,4.51A.62.62,0,0,1,195.61,152.31Zm-.4-7-.65-.36a1,1,0,0,1-.54-.91v-3.14a.77.77,0,0,1,.8-.74.72.72,0,0,1,.28.07h0a33.68,33.68,0,0,0,4.13,1.56.76.76,0,0,1,.49,1,.52.52,0,0,1-.07.15l-.5.83a1.35,1.35,0,0,1-.62.56l-2.4,1.07A1.06,1.06,0,0,1,195.21,145.34Zm3.41,7.95a.75.75,0,0,1-.79-.22c-1-1-1.35-5.67-1.35-5.67h0a1,1,0,0,1,.59-1.17l1.18-.52a1.1,1.1,0,0,1,1.38.4l1,1.47a1.24,1.24,0,0,1,.08,1.25S199.73,152.78,198.62,153.29Zm8.69,1.7a1.07,1.07,0,0,1-.83.18c-1.64-.33-3.51-.74-5.5-1.25a1,1,0,0,1-.7-1.47l1.53-3.35a1.29,1.29,0,0,1,.77-.64L204,148a1.06,1.06,0,0,1,1.32.71s0,.06,0,.09a13.11,13.11,0,0,0,2.16,4.69A1.07,1.07,0,0,1,207.31,155Zm4.85-.12a.42.42,0,0,1-.5.35.44.44,0,0,1-.24-.13h0c-5.12-5-4.68-8.92-4-10.78a.43.43,0,0,1,.55-.25.35.35,0,0,1,.12.07A10.6,10.6,0,0,1,212.16,154.87Z" transform="translate(-5.05 -23.75)"/><path class="cls-1" d="M179.13,99.32l-.35.32c-9.95,9-9.43,17.39-9.41,17.74a1,1,0,0,0,.75.86,57.86,57.86,0,0,0,11,1.4,16.74,16.74,0,0,0,3.46-.3,1,1,0,0,0,.76-.91c0-.07.27-6.83,4.27-11.29,5.4-6.06,8.74-16.76,8.09-26.06-.52-7.24-3.28-13.15-8-17.1-3.37-2.83-17.77-17.7-17.91-17.85l-1.58-1.63-.07,2.26c-.12,3.33,3.72,9.63,11.4,18.76a24.83,24.83,0,0,1,5.49,11.77C189.3,90.08,187.15,92,179.13,99.32Zm-1.35,4.11a.61.61,0,0,1,.15-.26c.63-.69,1.35-1.4,2.14-2.11h0l.35-.32.32-.28a.66.66,0,0,1,.94,0,.8.8,0,0,1,.15.29l.52,2a1.14,1.14,0,0,1-.38,1.16l-1.36,1-2.38-.71A.67.67,0,0,1,177.78,103.43Zm-2.39,2.82c.22-.32.47-.64.72-1a.7.7,0,0,1,.72-.23l3.52,1,.46.77a1.1,1.1,0,0,1-.36,1.53.81.81,0,0,1-.21.1h0l-1.36.49a1.17,1.17,0,0,1-1.1-.15l-2.25-1.65A.67.67,0,0,1,175.39,106.25ZM172,112.79a22.67,22.67,0,0,1,2-4.38.67.67,0,0,1,.92-.24l.05,0,2.05,1.51a1.17,1.17,0,0,1,.48,1.09l0,.18a1.15,1.15,0,0,1-.7.93l-3.83,1.68a.66.66,0,0,1-.88-.35A.69.69,0,0,1,172,112.79Zm11.54,4.28a.67.67,0,0,1-.61.58c-3.58.34-8.68-.53-11.08-1a.65.65,0,0,1-.53-.72,5,5,0,0,1,.06-.51l0,.09,5.86-2.57a1.17,1.17,0,0,1,1.09.07l5.28,3.25C183.64,116.55,183.6,116.82,183.57,117.07Zm1.49-5.95a22.89,22.89,0,0,0-1,3,.67.67,0,0,1-.8.5.64.64,0,0,1-.19-.08l-3.9-2.4a1.18,1.18,0,0,1,.19-2.13l2.44-.89a1.13,1.13,0,0,1,.92.07l2,1.1A.68.68,0,0,1,185.06,111.12Zm3.19-5.27a16.12,16.12,0,0,0-2.15,3.09.66.66,0,0,1-.89.3l-.05,0L183,108.06a1.18,1.18,0,0,1-.42-.38L182,106.6a1.11,1.11,0,0,1,.27-1.45l.77-.61a1.17,1.17,0,0,1,.77-.23l4,.44a.66.66,0,0,1,.59.73A.62.62,0,0,1,188.25,105.85Zm4.34-6.94c-.38.85-.79,1.68-1.23,2.46a1.2,1.2,0,0,1-1.62.48,1.22,1.22,0,0,1-.33-.27l-1.15-1.36a1,1,0,0,1,0-1.09l.94-1.51a1.2,1.2,0,0,1,1.21-.57h0l1.33.2a1.19,1.19,0,0,1,1,1.37A1,1,0,0,1,192.59,98.91Zm1.63-4.38c-.09.3-.18.6-.28.9a1.2,1.2,0,0,1-1.32.81l-2.34-.37a1.24,1.24,0,0,1-.92-.66l-1-2.3a1.24,1.24,0,0,1,0-1,6.67,6.67,0,0,0,.31-.66,1.19,1.19,0,0,1,1.55-.65,1.17,1.17,0,0,1,.27.15l3.3,2.53A1.17,1.17,0,0,1,194.22,94.53Zm.83-3.24a.82.82,0,0,1-1,.63.72.72,0,0,1-.32-.15l-3.87-3a.83.83,0,0,1-.31-.78c.07-.43.13-.88.16-1.34a.82.82,0,0,1,.88-.74,1.13,1.13,0,0,1,.18,0L195,87.32a.83.83,0,0,1,.57.88Q195.38,89.75,195.05,91.29Zm.84-8.74q0,1.22,0,2.46a1,1,0,0,1-1.08,1,1,1,0,0,1-.29,0l-4-1.28a1,1,0,0,1-.72-.93c0-.44,0-.9-.08-1.37a1,1,0,0,1,.94-1.12.43.43,0,0,1,.16,0l4.13.31A1,1,0,0,1,195.89,82.55Zm-.62-5.36c.13.58.24,1.15.32,1.71a1.27,1.27,0,0,1-1.06,1.45,1.09,1.09,0,0,1-.31,0l-3.76-.29A1.28,1.28,0,0,1,189.3,79c-.05-.33-.1-.68-.15-1a1.28,1.28,0,0,1,1-1.46h.1l3.62-.33A1.26,1.26,0,0,1,195.27,77.19ZM183.06,64.28c-5-5.9-8.42-10.8-10-14.13,4.36,4.47,12.86,13.13,15.45,15.3a19.43,19.43,0,0,1,5.53,7.77A1.39,1.39,0,0,1,193.3,75a1.18,1.18,0,0,1-.4.1l-3,.27a1.4,1.4,0,0,1-1.48-1A26.81,26.81,0,0,0,183.06,64.28Zm2,32.14a1,1,0,0,1,.15-.2c.34-.36.67-.72,1-1.08a1.2,1.2,0,0,1,1.68-.15,1.12,1.12,0,0,1,.29.36v0l.16.31a1.27,1.27,0,0,1-.05,1.21l-.77,1.25a1,1,0,0,1-1.32.33l-.69-.42A1.18,1.18,0,0,1,185.06,96.42Zm-1.32,1.92,2.86,1.73a.78.78,0,0,1,.27.24l1.54,2a.68.68,0,0,1-.13.94.66.66,0,0,1-.45.13h0l-3.39-.22a1.11,1.11,0,0,1-1-.83l-.83-3.16a.7.7,0,0,1,.2-.66l.13-.13A.68.68,0,0,1,183.74,98.34Z" transform="translate(-5.05 -23.75)"/><path class="cls-1" d="M288.7,131a2,2,0,0,0-.42-.06h0c-3.76-.24-13.2-.71-19.43,0l-1.7.19-.23.23a33.17,33.17,0,0,1-9.21,6.05,27.13,27.13,0,0,1-2.55,1c.69-4.2,1.39-14.41-6.61-20.39-.37-.29-9-7-17.9-5.18-4.69,1-8.51,4.16-11.36,9.49-2.31,4.32-2.69,8.61-1.08,12.74A19.59,19.59,0,0,0,222,141a13.69,13.69,0,0,1-3.51,1.23,1.49,1.49,0,0,0-1.07.92,1.52,1.52,0,0,0,.16,1.4A23.73,23.73,0,0,1,221.77,156a2.11,2.11,0,0,0,2.26,1.94,1.78,1.78,0,0,0,.39-.07c3.37-.92,11.51-3.23,15.84-5.31l.14.05h0a66.91,66.91,0,0,0,17.63,2.45c6.23,0,13.17-1,19.16-4.34,6.46-3.59,10.81-9.37,12.92-17.17A2.06,2.06,0,0,0,288.7,131Zm-23.47,4.27h0l.53-.38a.5.5,0,0,1,.61,0l4.49,3.25a.7.7,0,0,1,.28.45l.41,2.41a.9.9,0,0,1-.74,1.05.75.75,0,0,1-.26,0l-3-.38a1.06,1.06,0,0,1-.88-.73l-1.63-5.11A.5.5,0,0,1,265.23,135.29Zm-7.08,4.07.06,0,.32-.14a34.25,34.25,0,0,0,4.84-2.62.51.51,0,0,1,.71.14l.06.13,1.42,4.48a1.05,1.05,0,0,1-.31,1.12l-1.42,1.28a.44.44,0,0,1-.51.06l-4.56-2.56a.58.58,0,0,1-.18-.17l-.61-1A.51.51,0,0,1,258.15,139.36Zm-2,.75h0a.51.51,0,0,1,.59.2l.55.87a.57.57,0,0,1,0,.71l-2.3,2.66a.92.92,0,0,1-.79.32L252,144.7a.83.83,0,0,1-.45-.19l-2.39-2-.09-.48a.51.51,0,0,1,.42-.59h.07A24.87,24.87,0,0,0,256.1,140.11Zm-26.4-13.79h0a4.65,4.65,0,0,0-.51,1.75,5.59,5.59,0,0,0,.28,2.26.18.18,0,0,1-.12.23.15.15,0,0,1-.13,0L226,129.23a1,1,0,0,1-.64-.83l-.08-.59a1.17,1.17,0,0,1,.54-1.15l1.87-1.13a1.09,1.09,0,0,1,1-.09v0l.77.38A.37.37,0,0,1,229.7,126.32Zm.64,5.87,0,0a14.9,14.9,0,0,0,2.94,3.3.37.37,0,0,1,0,.54l0,0L232,137.24a1.13,1.13,0,0,1-.9.25l-3.22-.6a.4.4,0,0,1-.33-.46l.19-1.5a.93.93,0,0,1,.18-.46l1.51-2.11a1.33,1.33,0,0,1,.26-.27A.46.46,0,0,1,230.34,132.19Zm-4.46-1.81v0l1.31.55a1.24,1.24,0,0,1,.66,1.63.94.94,0,0,1-.13.24l-.53.76a1,1,0,0,1-.73.42l-3.69.35a.46.46,0,0,1-.52-.4.45.45,0,0,1,.11-.37l2.27-2.86A1.06,1.06,0,0,1,225.88,130.38Zm1.18,7.85a.4.4,0,0,1,.44-.22l3.17.58a1.06,1.06,0,0,1,.83.77l.09.33a.88.88,0,0,1-.14.77L229,143.68a.77.77,0,0,1-1,.16c-.77-.56-1.48-1.15-2.19-1.76a.76.76,0,0,1-.18-.89Zm2.93,6.1,0,0,2.3-3.11a.9.9,0,0,1,.74-.35l2.1.09a.79.79,0,0,1,.76.83.47.47,0,0,1,0,.17l-.45,1.72a.77.77,0,0,1-.28.43l-2.69,2.13a.75.75,0,0,1-.85.06c-.47-.29-1-.59-1.42-.9A.74.74,0,0,1,230,144.33Zm3.45-4.64a.87.87,0,0,1-.81-.59,1.08,1.08,0,0,1,.3-1.15l1.32-1.15a.5.5,0,0,1,.61,0c.38.27,1.07.73,1.56,1.05s1,.61,1.48.88a.33.33,0,0,1,.15.45.29.29,0,0,1-.15.14l-.94.47a1,1,0,0,1-.38.08Zm3.86-3.61c-5.91-3.84-6.32-6.77-6.22-7.87a2.72,2.72,0,0,1,1.71-2.3,1.81,1.81,0,0,1,.69-.14,4,4,0,0,1,2.54,1.41c1.83,1.78,3.63,4.65,3.23,6.72A3,3,0,0,1,237.3,136.08ZM236,121.92l.59-.85a1,1,0,0,1,1-.41l1,.17a1,1,0,0,1,.54.27l.89.87a1.13,1.13,0,0,1,.35.85v1a1.24,1.24,0,0,1-.32.84l-1.37,1.54a.63.63,0,0,1-.9,0l0,0c-.13-.14-.27-.27-.39-.39a8.49,8.49,0,0,0-1.51-1.22.64.64,0,0,1-.3-.66l.3-1.57a1.18,1.18,0,0,1,.18-.45Zm4.54,3.92a1.27,1.27,0,0,1,1.38-.34l1.43.53a1.09,1.09,0,0,1,.71,1v.35a1.09,1.09,0,0,1-.08.39l-1.15,2.81a1.33,1.33,0,0,1-.38.53l-.69.55a.52.52,0,0,1-.73-.08.66.66,0,0,1-.09-.19,12,12,0,0,0-1.74-3.45.53.53,0,0,1,0-.65Zm0,9.83,2.21,1a1.59,1.59,0,0,1,.91,1.44l-.18.77a20.83,20.83,0,0,1-4.36-1.69A4.86,4.86,0,0,0,240.61,135.67Zm3,.14-2.19-1a.52.52,0,0,1-.31-.57c0-.13,0-.27.06-.38a.52.52,0,0,1,.19-.36h0l1.38-1.1a1.31,1.31,0,0,1,1.22-.24l1.25.39a1.63,1.63,0,0,1,1.11,1.93l0,.24a1.26,1.26,0,0,1-.68.83l-.64.3A1.65,1.65,0,0,1,243.64,135.81Zm2.81-4.14-1.08-.33a1.32,1.32,0,0,1-.89-1.66.56.56,0,0,1,0-.12l.28-.68a1,1,0,0,1,.89-.63l3.07-.15a.93.93,0,0,1,1,.89v.48a1.1,1.1,0,0,1-.43.86l-1.37,1.07A1.61,1.61,0,0,1,246.45,131.67Zm.7,4.75,6,1.91q-.06.36-.12.63a19.86,19.86,0,0,1-8.23.23l0-1.06a1.6,1.6,0,0,1,.92-1.44l.47-.22A1.27,1.27,0,0,1,247.15,136.42Zm-3.27,6.45.55-1.42a.52.52,0,0,1,.56-.31,20,20,0,0,0,2.44.25.51.51,0,0,1,.48.43l.22,1.24,2,1.74a.8.8,0,0,1,.26.85.77.77,0,0,1-.77.53l-3.28-.12a1,1,0,0,1-.72-.36L244,143.82A.93.93,0,0,1,243.88,142.87Zm9.58-6.55a.58.58,0,0,1-.63.52l-.11,0-4.3-1.2a1.22,1.22,0,0,1-.82-1.45l.17-.71a1.62,1.62,0,0,1,.58-.91l1.31-1a1.08,1.08,0,0,1,1.32,0l2.36,1.73a.59.59,0,0,1,.24.47C253.58,134.65,253.53,135.53,253.46,136.32Zm-1.06-9.75a.22.22,0,0,1,.08.13,19.91,19.91,0,0,1,1,4.52.31.31,0,0,1-.28.35.32.32,0,0,1-.23-.06l-1.62-1.19a1.1,1.1,0,0,1-.44-.88v-1.38a.94.94,0,0,1,.26-.65l.8-.83A.33.33,0,0,1,252.4,126.57Zm-3.73-5.9a.45.45,0,0,1,.14.1,14.31,14.31,0,0,1,2.82,3.86.67.67,0,0,1-.14.76h0l-1.19,1.23a1,1,0,0,1-.63.29l-3.38.16a1,1,0,0,1-1.07-1v0l2.63-5.13A.59.59,0,0,1,248.67,120.67Zm-1.79-.8a.31.31,0,0,1,0,.28c-.67,1.38-2.06,4.21-2.06,4.21a1.1,1.1,0,0,1-1.34.5l-1.15-.42a1.27,1.27,0,0,1-.82-1.18v-.11a1.18,1.18,0,0,1,.65-1.05l4.33-2.3A.27.27,0,0,1,246.88,119.87Zm-4.69-3.38.05,0a27.93,27.93,0,0,1,3.32,1.79.49.49,0,0,1,.15.68.39.39,0,0,1-.2.18L241.82,121a1.18,1.18,0,0,1-1.36-.2l-.14-.14a1,1,0,0,1-.24-1.07l1-2.57A.89.89,0,0,1,242.19,116.49Zm-7.49-1.94a.53.53,0,0,1,.28-.07,19.61,19.61,0,0,1,4.68,1,.69.69,0,0,1,.43.87v0l-1,2.57a1,1,0,0,1-1.1.63l-.48-.08a1,1,0,0,1-.69-.46l-2.3-3.79A.49.49,0,0,1,234.7,114.55Zm-4.08.26.4-.1h0l.69-.12a1.45,1.45,0,0,1,1.46.68l2.52,4.08a1,1,0,0,1-.35,1.39.86.86,0,0,1-.3.12,1.31,1.31,0,0,1-.83-.06l-3.53-1.43a1,1,0,0,1-.66-.91l-.1-2.72A.91.91,0,0,1,230.62,114.81Zm-.38,5.63,3.59,1.46a1.15,1.15,0,0,1,.69,1.26h0l-.07.38a.45.45,0,0,1-.5.35,3.71,3.71,0,0,0-1.89.26,4.78,4.78,0,0,0-1.21.72.44.44,0,0,1-.48.07l-1.42-.68a1.15,1.15,0,0,1-.51-.49l-.49-1a1.11,1.11,0,0,1,.25-1.32l.93-.83A1,1,0,0,1,230.24,120.44Zm-6.77-1a.49.49,0,0,1,.1-.15,14,14,0,0,1,4.64-3.67.37.37,0,0,1,.52.15.37.37,0,0,1,.05.18l.1,2.76a1,1,0,0,1-.34.86l-1.31,1.15a1.1,1.1,0,0,1-1.11.21l-2.35-.85A.5.5,0,0,1,223.47,119.49Zm-3.18,5.11a14.27,14.27,0,0,1,.66-1.37c.36-.67.73-1.3,1.12-1.89a.71.71,0,0,1,.86-.27h0L226,122.2a1.08,1.08,0,0,1,.61.54l.34.68a1.08,1.08,0,0,1-.4,1.41l-1.75,1.06a1.12,1.12,0,0,1-.8.15l-3.27-.56a.64.64,0,0,1-.52-.74A.57.57,0,0,1,220.29,124.6Zm-.38,9.44a.4.4,0,0,1-.1-.15,12.19,12.19,0,0,1-.34-6.77.75.75,0,0,1,.86-.57l2.91.52a1.15,1.15,0,0,1,.95,1l.1.69a1,1,0,0,1-.23.81s-2.65,3.26-3.66,4.44A.36.36,0,0,1,219.91,134Zm1.23,2.67a.76.76,0,0,1,.32-1,.79.79,0,0,1,.26-.08l3.09-.29a1.42,1.42,0,0,1,1.54,1.29,1.09,1.09,0,0,1,0,.31l0,.19a.56.56,0,0,1,0,.12l-1.3,2.72a.76.76,0,0,1-1,.32.59.59,0,0,1-.18-.13A20.6,20.6,0,0,1,221.14,136.71Zm6.59,17a1.78,1.78,0,0,1-1.28,1.54l-2.55.72h0a.18.18,0,0,1-.16,0,.17.17,0,0,1-.07-.13,25.6,25.6,0,0,0-3.81-11.29.54.54,0,0,1,.19-.75.31.31,0,0,1,.13-.06,16,16,0,0,0,2.41-.94,1.25,1.25,0,0,1,1.38.2c.38.38.8.71,1.21,1.06l2.75,5.13a1.35,1.35,0,0,1,.14.71Zm.77-5.91-1.1-2c1.22.87,2.46,1.66,3.66,2.37l-1.1.31A1.27,1.27,0,0,1,228.5,147.85Zm1.79,6.31a1,1,0,0,1-1.3-.68.9.9,0,0,1,0-.4h0l.2-2.33a1.27,1.27,0,0,1,.93-1.11l2.39-.66c2,1.11,3.87,2,5.28,2.58C235.57,152.46,232.84,153.38,230.29,154.16Zm7.44-4.79a.77.77,0,0,1-.34-.07c-1-.45-2.1-1-3.29-1.63a.76.76,0,0,1-.27-1,.91.91,0,0,1,.18-.21l1.61-1.2a.81.81,0,0,1,.82-.11l1.27.54a1.09,1.09,0,0,1,.66,1l.07,2A.74.74,0,0,1,237.73,149.37Zm.69-4.69-1.2-.51a.8.8,0,0,1-.46-.95l.53-2.05a.82.82,0,0,1,.42-.51l1.85-.91a.7.7,0,0,1,.53,0,20.37,20.37,0,0,0,2.82,1,.48.48,0,0,1,.35.59s0,0,0,0l-.55,1.41a1,1,0,0,1-.46.5l-2.89,1.41A1.1,1.1,0,0,1,238.42,144.68Zm6,6.13a.77.77,0,0,1-.88.63h0c-1.48-.33-2.4-.59-2.55-.64l-.91-.34a.8.8,0,0,1-.47-.67h0l-.11-3.2a1.11,1.11,0,0,1,.62-1l2.07-1a1,1,0,0,1,1.13.23l1.42,1.66a1,1,0,0,1,.23.81Zm9.47,1.37-.22.35a.75.75,0,0,1-.69.36c-2.59-.21-4.93-.56-6.84-.91a.77.77,0,0,1-.6-.85l.45-3a1,1,0,0,1,1-.86l2.67.11a.71.71,0,0,1,.54.25l3.59,3.9A.59.59,0,0,1,253.92,152.18Zm.47-1.83a.4.4,0,0,1-.12-.1l-2.76-3a.76.76,0,0,1,0-1l.07-.08a.75.75,0,0,1,.66-.29l2,.16a.93.93,0,0,1,.62.31l1.08,1.2a1.07,1.07,0,0,1,.11,1.25l-.86,1.37A.56.56,0,0,1,254.39,150.35Zm6.73,2.67h0c-1.92.1-3.77.1-5.55,0a.46.46,0,0,1-.44-.49.44.44,0,0,1,.07-.22h0l2-3.2a1,1,0,0,1,.88-.5H260a1.24,1.24,0,0,1,1.23,1.1l.32,2.76A.48.48,0,0,1,261.12,153Zm-.48-5.54h-2.75a1,1,0,0,1-.77-.35l-.92-1a.94.94,0,0,1,0-1.23h0l1.89-2.2a.57.57,0,0,1,.71-.13l3.79,2.12a.42.42,0,0,1,.18.59l0,0-1.06,1.64A1.22,1.22,0,0,1,260.64,147.48Zm4.85,4.77a.46.46,0,0,1-.38.36c-.63.09-1.26.17-1.89.23a.47.47,0,0,1-.51-.41h0l-.43-3.79a1.16,1.16,0,0,1,.19-.81l1.13-1.74a.43.43,0,0,1,.61-.13.24.24,0,0,1,.08.06l1.7,1.79a1.1,1.1,0,0,1,.27,1Zm-.58-7.24a.45.45,0,0,1,0-.63l1.36-1.31a1.06,1.06,0,0,1,.88-.27h0l3.1.39a.89.89,0,0,1,.77.88v1.5a1,1,0,0,1-.74,1l-2.5.69a1.09,1.09,0,0,1-1.08-.3Zm8.69,5.31a.54.54,0,0,1-.16.1,33.31,33.31,0,0,1-6.09,1.82.47.47,0,0,1-.55-.36.67.67,0,0,1,0-.2l.56-2.52a1.08,1.08,0,0,1,.76-.81l2.76-.77a1,1,0,0,1,1,.28l1.71,1.8A.46.46,0,0,1,273.6,150.32Zm2.51-1.19c-.26.15-.54.31-.69.38h0a.44.44,0,0,1-.55-.1l-2.39-2.55a1,1,0,0,1-.28-.71V144a.32.32,0,0,1,.32-.32.29.29,0,0,1,.16,0l2.95,1.64a1.16,1.16,0,0,1,.6.84l.33,2.05A.89.89,0,0,1,276.11,149.13Zm1.07-5.36a1.19,1.19,0,0,1-1.48.26l-2.35-1.32a.88.88,0,0,1-.45-.64l-.43-2.5a.7.7,0,0,1,.57-.81h.1l4.64-.15a1,1,0,0,1,1,.81l.29,1.42a1.25,1.25,0,0,1-.27,1Zm5.79-.29a.43.43,0,0,1-.11.2,23.68,23.68,0,0,1-4.52,4.08.49.49,0,0,1-.67-.16.44.44,0,0,1-.06-.16h0l-.25-1.47a1.21,1.21,0,0,1,.28-1l1.92-2.19a1.21,1.21,0,0,1,1.21-.39l1.83.46A.51.51,0,0,1,283,143.48Zm4.5-7.79a27.09,27.09,0,0,1-3.14,6.07.54.54,0,0,1-.54.21l-2.69-.68a1.25,1.25,0,0,1-.9-.94l-.25-1.27a1,1,0,0,1,.57-1.13l6.26-2.91a.5.5,0,0,1,.66.26.48.48,0,0,1,0,.39Zm-8.3,1.59a1,1,0,0,1-.38.1l-6.41.21a.65.65,0,0,1-.44-.14l-4.4-3.21a.52.52,0,0,1-.11-.73l.07-.07.39-.33a.46.46,0,0,1,.29-.13l.88-.1c6.08-.7,15.38-.23,19.09,0a.11.11,0,0,1,.11.06.11.11,0,0,1,0,.12Z" transform="translate(-5.05 -23.75)"/><path class="cls-1" d="M261.59,113.93l.61.48c5.3,4.22,6,7.68,5.92,9.38a2.12,2.12,0,0,0,2,2.16c.94.07,1.86.09,2.76.09a47.89,47.89,0,0,0,15.23-2.58,2.09,2.09,0,0,0,1.29-2.66.69.69,0,0,0,0-.1v0a47,47,0,0,0-18.09-21.21c-13.45-8.59-14.32-19.16-14.33-19.26l0-.39-.27-.26c-10.31-9.95-22.11-1.39-22.23-1.3l-.33.24L234,79C232.54,90.75,252.9,107,261.59,113.93Zm-7.34-8.59a.57.57,0,0,1-.16-.11c-1.3-1.13-2.62-2.3-3.94-3.56a.73.73,0,0,1,0-1h0l2.38-2.45A.54.54,0,0,1,253,98l2.91.86a.53.53,0,0,1,.39.51v3.17a1,1,0,0,1-.11.46l-1,2A.75.75,0,0,1,254.25,105.34Zm2.17,1.93-.15-.1a.71.71,0,0,1-.28-.94l1.39-2.94a1.18,1.18,0,0,0,.1-.45v-3a.53.53,0,0,1,.53-.53.54.54,0,0,1,.22,0l2.95,1.35a.54.54,0,0,1,.3.36l.35,1.56a1,1,0,0,1-.19.86l-1.8,2.33a.86.86,0,0,1-.31.26l-2.34,1.26A.79.79,0,0,1,256.42,107.27ZM262,110.4a.73.73,0,0,1-.85.61.74.74,0,0,1-.34-.15c-.7-.56-1.45-1.15-2.24-1.82a.77.77,0,0,1-.06-1.08,1.19,1.19,0,0,1,.18-.15l.68-.38a1,1,0,0,1,1.12.15L262,109a.65.65,0,0,1,.16.58l0,0Zm-.53-3.45a1,1,0,0,1-.09-1.27l1-1.3a1.05,1.05,0,0,1,1-.39l3.15.67a1,1,0,0,1,.81,1.13l-.12,1.15a.64.64,0,0,1-.49.56l-3.43.83a.65.65,0,0,1-.61-.17Zm2.51,6.44c-.21-.15-.4-.31-.59-.47l0,0-.19-.15a.87.87,0,0,1-.32-.84l.34-2a.64.64,0,0,1,.49-.52l3.91-.94a.53.53,0,0,1,.25,0,.65.65,0,0,1,.55.73s0,0,0,.08l-.71,2.72a.78.78,0,0,1-.45.52l-2.38,1A.87.87,0,0,1,264,113.39Zm3.8,4,0,0a21.25,21.25,0,0,0-1.6-2,.85.85,0,0,1,0-1.21.78.78,0,0,1,.24-.16l1.34-.58a.81.81,0,0,1,.61,0l1.88.73a.79.79,0,0,1,.51.74v.8a1.71,1.71,0,0,1-1,1.55l-1,.38A.84.84,0,0,1,267.79,117.43Zm5.36-4.56-1.5.47a.72.72,0,0,1-.54,0l-1.68-.65a.8.8,0,0,1-.48-.94l.64-2.45a.65.65,0,0,1,.73-.48l2.57.38a.65.65,0,0,1,.56.58l.24,2.26A.79.79,0,0,1,273.15,112.87Zm1,.83a.82.82,0,0,1,.44,0l2.82.68a.81.81,0,0,1,.61.73l0,.74a1.67,1.67,0,0,1-.92,1.6l-1.54.76a1.66,1.66,0,0,1-1.56,0l-1.27-.7a1.69,1.69,0,0,1-.86-1.47V115a.81.81,0,0,1,.55-.77ZM286,118.14l.05.09c.55,1,1.05,2.1,1.5,3.19a.17.17,0,0,1-.11.24,45.33,45.33,0,0,1-17.22,2.39.18.18,0,0,1-.18-.18,9.15,9.15,0,0,0-.92-4.15.77.77,0,0,1,.35-1l.06,0,1-.42a1.71,1.71,0,0,1,1.45.08l2,1.15a1.69,1.69,0,0,0,1.56,0l2.51-1.25a1.66,1.66,0,0,1,1.36-.06l2.37.92a1.66,1.66,0,0,0,1.53-.16l1.56-1A.77.77,0,0,1,286,118.14Zm-3.35-5.32h0c.77,1,1.41,2,2,2.94a.84.84,0,0,1-.25,1.14l-1.15.77a1.69,1.69,0,0,1-1.53.17l-1.4-.55a1.69,1.69,0,0,1-1.07-1.47l-.05-1a.78.78,0,0,1,.32-.69l1.95-1.45A.86.86,0,0,1,282.65,112.82Zm-4.77-5.56a43.6,43.6,0,0,1,3,3.23.88.88,0,0,1-.11,1.24l0,0-2,1.45a.75.75,0,0,1-.65.13l-2.64-.63a.79.79,0,0,1-.6-.69l-.29-2.69a.64.64,0,0,1,.23-.56l1.92-1.56A.87.87,0,0,1,277.88,107.26Zm-5.6-4.73c1.22.88,2.35,1.77,3.4,2.69a.89.89,0,0,1,.1,1.25.94.94,0,0,1-.1.1L274,108a.6.6,0,0,1-.51.15l-4.48-.64a.66.66,0,0,1-.56-.72l.17-1.62a1,1,0,0,1,.39-.7l2.25-1.84A.89.89,0,0,1,272.28,102.53ZM265.93,98a41.47,41.47,0,0,0,3.88,2.84.62.62,0,0,1,.18.85l-.06.08c-.61.66-1.61,1.66-1.61,1.66a1.08,1.08,0,0,1-.87.21l-3.8-.81a1,1,0,0,1-.79-.79l-.28-1.24a.53.53,0,0,1,.13-.48l2.21-2.27A.75.75,0,0,1,265.93,98Zm-4.34-4.12.12.1c.68.77,1.43,1.54,2.25,2.3a.77.77,0,0,1,0,1.07l-2,2a.53.53,0,0,1-.6.11l-2.91-1.33a.53.53,0,0,1-.26-.7l0-.07,2.27-3.34A.75.75,0,0,1,261.59,93.89ZM260,92l0,0a.75.75,0,0,1,0,.85l-3.2,4.76a.53.53,0,0,1-.6.22l-3.05-.9a.51.51,0,0,1-.35-.32l-1-2.68a.48.48,0,0,1,0-.39l.6-1.19a.49.49,0,0,1,.43-.28l6.5-.35A.73.73,0,0,1,260,92Zm-3.17-5.33h0a28.33,28.33,0,0,0,1.79,3.29.41.41,0,0,1-.13.56.33.33,0,0,1-.19.06l-5.33.29a.5.5,0,0,1-.49-.32l-.44-1.18a.88.88,0,0,1,.41-1.1l3.83-1.8A.4.4,0,0,1,256.84,86.62Zm-1.41-3.83.06.16c.1.4.24.86.41,1.36h0a.89.89,0,0,1-.43,1.08l-2.75,1.4a.89.89,0,0,1-1.2-.36.94.94,0,0,1-.11-.38l-.09-1.89a.87.87,0,0,1,.61-.89,16.83,16.83,0,0,0,2.3-.89A.87.87,0,0,1,255.43,82.79Zm-9.07,6.52a.86.86,0,0,1,.66-.53l2.63-.48a.89.89,0,0,1,1,.56l.89,2.36a.5.5,0,0,1,0,.38l-.61,1.22a.48.48,0,0,1-.41.27l-5,.36a.5.5,0,0,1-.54-.46.45.45,0,0,1,0-.23Zm-1.15-2a.88.88,0,0,1-.51-1l.38-1.6A.89.89,0,0,1,246,84c.32,0,.63,0,1,0a17.93,17.93,0,0,0,2.2-.14.87.87,0,0,1,1,.76.37.37,0,0,1,0,.11v1.4a.89.89,0,0,1-.7.86l-3,.61a1,1,0,0,1-.55-.05Zm-7.87-8.41a.53.53,0,0,1,.21-.21A19.4,19.4,0,0,1,242,77.06l0,0a13.68,13.68,0,0,1,11.75,2.58.53.53,0,0,1,.09.74.39.39,0,0,1-.17.14c-6.69,3.32-13.05.77-16.15-1A.52.52,0,0,1,237.34,78.9Zm.61,8.22a18.2,18.2,0,0,1-1.77-4.47.88.88,0,0,1,1.22-1l0,0a23,23,0,0,0,5.76,2,.89.89,0,0,1,.69,1v0l-.36,1.54a.87.87,0,0,1-.72.67l-3.93.63A.89.89,0,0,1,238,87.12ZM242.81,94a.61.61,0,0,1-.16-.12,48.08,48.08,0,0,1-3.42-4.6.38.38,0,0,1,.24-.64l0,0,4-.64a.82.82,0,0,1,.49.06l.59.26a.89.89,0,0,1,.47,1.15l-1.74,4.28A.41.41,0,0,1,242.81,94Zm1.24,1h0a.89.89,0,0,1,.43-.22l5.9-.41a.49.49,0,0,1,.5.31l.86,2.25a.55.55,0,0,1-.11.56l-2.33,2.44a.73.73,0,0,1-1,0h0c-1.3-1.28-3.6-3.77-4.27-4.51l0,0A.32.32,0,0,1,244.05,94.92Z" transform="translate(-5.05 -23.75)"/><path class="cls-1" d="M309.8,95.33c7.1-2.12,8.66-5.3,8.83-5.65l.08-.19v-.2a48.94,48.94,0,0,0-3.8-16.51,40.83,40.83,0,0,0-25.33-23.66,51.35,51.35,0,0,0-34.78.49,45.42,45.42,0,0,0-13.4,7.64.9.9,0,0,0-.32.72c0,.14.34,13.26,17.52,13.26h.13a1,1,0,0,0,.81-.45,16,16,0,0,1,6.35-5.27c5.79-2.71,12.62-1.92,20.31,2.39,12.9,7.19,11.13,23.23,11.1,23.4l-.05.43.28.32a12.39,12.39,0,0,0,8.75,3.84A12.69,12.69,0,0,0,309.8,95.33Zm6.07-12.1c.33,1.49.51,2.37.64,3.21a.54.54,0,0,1-.77.56,18.12,18.12,0,0,0-5.69-1.82.54.54,0,0,1-.48-.58.46.46,0,0,1,.1-.25l1.47-2A.8.8,0,0,1,312,82l3.5.84A.53.53,0,0,1,315.87,83.23Zm-9.18-13.7a1.14,1.14,0,0,1,.77,1l.15,1.25a1.14,1.14,0,0,1-.45,1.07l-1.1.82a1.13,1.13,0,0,1-1.09.17l-3.42-1.2a1.15,1.15,0,0,1-.76-1.28l.07-.5a1.14,1.14,0,0,1,.25-.56l1.22-1.5a1.15,1.15,0,0,1,1.3-.36h0Zm-4.92-1.92v0l-1.21,1.48a1.13,1.13,0,0,1-1.1.41l-2.23-.39a1.15,1.15,0,0,1-1-1.32s0,0,0-.07l.2-.91a1.14,1.14,0,0,1,.5-.73l1.19-.76a1.12,1.12,0,0,1,.85-.17l2,.38a1.14,1.14,0,0,1,.92.91l.05.22A1.12,1.12,0,0,1,301.77,67.61Zm-1.95,6.17a.81.81,0,0,1,.91-.25l3.79,1.33a.85.85,0,0,1,.56.77v.17a.86.86,0,0,1-.31.65l-1.61,1.3a.83.83,0,0,1-1,.06h0l-2.94-1.9a.81.81,0,0,1-.25-1.14s0,0,.06-.08Zm3.39,5.69a.82.82,0,0,1,.3-.52l1.86-1.52a.82.82,0,0,1,.82-.13l3.26,1.25a.81.81,0,0,1,.49.53l.51,1.64a.86.86,0,0,1-.12.73L308,84.7a.87.87,0,0,1-.67.39.92.92,0,0,1-.66-.21h0L303.23,82a.83.83,0,0,1-.28-.77Zm12.49,2.18-3.57-.81a.83.83,0,0,1-.61-.56l-.44-1.46a.8.8,0,0,1,.27-.88L314.08,76A49.94,49.94,0,0,1,315.7,81.65ZM312.82,75a.77.77,0,0,1-.28.48l-2.18,1.77a.81.81,0,0,1-.82.13l-2.79-1.07a.84.84,0,0,1-.52-.78h0v-.17a.84.84,0,0,1,.33-.67l1.59-1.19a.81.81,0,0,1,.66-.15l3.38.66A.83.83,0,0,1,312.82,75Zm-2.59-7a.84.84,0,0,1,.23.23c.68,1.18,1.32,2.4,1.92,3.67a.66.66,0,0,1-.32.87.68.68,0,0,1-.4,0l-2-.42a1.14,1.14,0,0,1-.93-1l-.15-1.15a1.77,1.77,0,0,1,.24-1.1l.54-.91A.65.65,0,0,1,310.23,67.94Zm-3.56-5.19,0,0c.8,1,1.56,2,2.28,3a.68.68,0,0,1,0,.7l-.8,1.34a1.14,1.14,0,0,1-1.39.49l-2.93-1.08a1.16,1.16,0,0,1-.73-.85L303,66a1.17,1.17,0,0,1,.35-1.09l2.38-2.2A.65.65,0,0,1,306.67,62.75ZM304,59.81c.32.31.63.61.93.93a.89.89,0,0,1,0,1.26h0l-2.3,2.14a1.17,1.17,0,0,1-1,.29l-1.84-.35a1.15,1.15,0,0,1-.92-.9L298.29,61a1.15,1.15,0,0,1,.86-1.38,1.43,1.43,0,0,1,.29,0l3.9,0A.89.89,0,0,1,304,59.81Zm-8.23-5a.62.62,0,0,1,.7-.52.57.57,0,0,1,.22.07,37.89,37.89,0,0,1,4.44,3,.63.63,0,0,1,.1.88.65.65,0,0,1-.48.23h-3.36l-1-.3a1.24,1.24,0,0,1-.87-1.4Zm-.19,4.32.52.15a1.25,1.25,0,0,1,.86.93l.69,3.15a1.25,1.25,0,0,1-.53,1.3l-.77.5a1.25,1.25,0,0,1-.84.19l-1.87-.25a1.23,1.23,0,0,1-1.06-1.22v-2a1.2,1.2,0,0,1,.32-.83l1.41-1.56A1.26,1.26,0,0,1,295.54,59.11Zm-1.32-6,.15.08a.62.62,0,0,1,.34.64l-.56,3.84a1.22,1.22,0,0,1-.31.62l-1.26,1.39a1.23,1.23,0,0,1-1.58.2l-.32-.2a1.24,1.24,0,0,1-.55-.82l-.46-2.54a1.25,1.25,0,0,1,.59-1.29l3.38-1.92A.66.66,0,0,1,294.22,53.07Zm-8.25-3a.65.65,0,0,1,.31,0c.89.25,1.78.52,2.69.81s1.54.54,2.3.83h0a.72.72,0,0,1,.4.94.71.71,0,0,1-.31.35l-2,1.15a1.22,1.22,0,0,1-1.07.09l-1.79-.69a1.22,1.22,0,0,1-.77-.92l-.32-1.75A.71.71,0,0,1,286,50.1Zm-3.76-.94,1.29.26a.72.72,0,0,1,.55.57l.51,2.81a1.21,1.21,0,0,1-.46,1.2l-2.66,2.06a1.24,1.24,0,0,1-1.73-.23.86.86,0,0,1-.1-.16L278.69,54a1.24,1.24,0,0,1,.13-1.4l2.71-3.24A.7.7,0,0,1,282.21,49.16Zm-12.66-.74a.33.33,0,0,1,.23-.1,48,48,0,0,1,10.09.44.34.34,0,0,1,.29.39.36.36,0,0,1-.07.17l-2.52,3a1.2,1.2,0,0,1-.77.43l-2.18.32a1.19,1.19,0,0,1-1-.33l-4-3.83A.35.35,0,0,1,269.55,48.42Zm-.65,1.48,0,0,3.46,3.29a1.23,1.23,0,0,1,.21,1.53l-1.11,1.88a1.23,1.23,0,0,1-1.07.61h-.77a1.21,1.21,0,0,1-.93-.43l-3.06-3.5a1.24,1.24,0,0,1,0-1.65l1.5-1.66A1.24,1.24,0,0,1,268.9,49.9Zm-10.8.64a.27.27,0,0,1,.12-.06A48.58,48.58,0,0,1,266,48.73a.33.33,0,0,1,.38.29.32.32,0,0,1-.08.28l-4.1,4.53a1.23,1.23,0,0,1-1.74.08l-.14-.15h0L258.05,51A.36.36,0,0,1,258.1,50.54Zm-.81,1.52a.8.8,0,0,1,.32.25l2.69,3.33a.87.87,0,0,1,.17.68l-.66,3.42a.83.83,0,0,1-.44.59l-1.92,1a.52.52,0,0,1-.66-.13A9.78,9.78,0,0,0,255,59.5h0a11.15,11.15,0,0,0-1.07-.67.55.55,0,0,1-.24-.71l2.55-5.63A.84.84,0,0,1,257.29,52.06ZM246.78,55.7A48.88,48.88,0,0,1,254.09,52a.55.55,0,0,1,.72.31.51.51,0,0,1,0,.42l-2.18,4.9a.55.55,0,0,1-.71.28A17,17,0,0,0,247,56.72a.55.55,0,0,1-.5-.59A.54.54,0,0,1,246.78,55.7Zm10,13.52h-.15c-10-.67-12.67-6.46-13.39-9.48a.9.9,0,0,1,.67-1.08l.14,0a15.29,15.29,0,0,1,9.83,2.44c2.67,1.83,3.46,5,3.71,7.14A.92.92,0,0,1,256.76,69.22Zm7.28-5a18.82,18.82,0,0,0-4.11,3,.34.34,0,0,1-.48,0,.31.31,0,0,1-.09-.18,13.71,13.71,0,0,0-1.46-4.35.33.33,0,0,1,.11-.46h0l1.78-.91a.83.83,0,0,1,.81,0l3.2,1.89a.87.87,0,0,1,.4.62A.32.32,0,0,1,264,64.26Zm1-2.45a.84.84,0,0,1-1.09.22l-2.53-1.5a.84.84,0,0,1-.39-.88l.66-3.38a.7.7,0,0,1,.2-.4L263.54,54a.83.83,0,0,1,1.18-.07l.07.07,2.85,3.26a.84.84,0,0,1,0,1.06Zm8.24.17a.36.36,0,0,1-.2.06,18.86,18.86,0,0,0-6.73,1.18h0a.35.35,0,0,1-.43-.23.37.37,0,0,1,0-.29c1-1.43,2.92-4,2.92-4a.82.82,0,0,1,.66-.33h1.21a.83.83,0,0,1,.69.36l1.92,2.79A.34.34,0,0,1,273.26,62Zm.73-1.56-.06-.07-1.33-1.92a1.24,1.24,0,0,1-.05-1.36h0l1.34-2.26a1.23,1.23,0,0,1,.89-.59l1.64-.25a1.25,1.25,0,0,1,1.26.63l1.2,2.13a1.24,1.24,0,0,1-.31,1.57l-2.85,2.3A1.23,1.23,0,0,1,274,60.42ZM284.3,63.8a.61.61,0,0,1-.61.61.53.53,0,0,1-.25,0,29.42,29.42,0,0,0-6.5-2,.63.63,0,0,1-.49-.72.59.59,0,0,1,.22-.37l2.43-1.95a.83.83,0,0,1,1.07,0L284,62.61a.82.82,0,0,1,.29.64Zm-.06-2.47-2.52-2.17a1.24,1.24,0,0,1-.14-1.74,1.07,1.07,0,0,1,.19-.18l3.09-2.39a1.24,1.24,0,0,1,1.2-.18l1.66.64a1.21,1.21,0,0,1,.76.93l.42,2.33a1.23,1.23,0,0,1-.58,1.28l-2.64,1.59A1.24,1.24,0,0,1,284.24,61.33ZM288.51,67c-.45-.3-.91-.59-1.41-.86l-1.32-.71a.62.62,0,0,1-.34-.53h0V63.41a.83.83,0,0,1,.4-.72l3.4-2a.84.84,0,0,1,.89,0l.89.57a.83.83,0,0,1,.38.7v2.86a.86.86,0,0,1-.29.64L289.25,67A.62.62,0,0,1,288.51,67Zm4.23,3.59-.06-.06a20.74,20.74,0,0,0-2.21-2.08.65.65,0,0,1-.09-.91.6.6,0,0,1,.08-.08l1.41-1.21a.79.79,0,0,1,.66-.19l2,.26a.84.84,0,0,1,.73.93s0,0,0,.08l-.33,1.53a.88.88,0,0,1-.17.35l-1.05,1.28A.64.64,0,0,1,292.74,70.63Zm3.4,4.78a.49.49,0,0,1-.16-.19,22.87,22.87,0,0,0-1.76-2.78.66.66,0,0,1,0-.8l1-1.27a.82.82,0,0,1,.8-.29h0l2.85.5a.84.84,0,0,1,.68.94l-.11.65a.8.8,0,0,1-.18.41L297,75.33A.64.64,0,0,1,296.14,75.41Zm.82,1.83.3-.37a.84.84,0,0,1,1.09-.17l3.31,2.14a.81.81,0,0,1,.39.82l-.18,1.17a.81.81,0,0,1-.66.68l-2.71.58A27.36,27.36,0,0,0,297,77.24Zm2.31,10.57a34.89,34.89,0,0,0-.43-4.07.52.52,0,0,1,.39-.62h0l2.53-.54a.84.84,0,0,1,.71.18l2.33,2a.54.54,0,0,1,.07.75.6.6,0,0,1-.25.16,15.15,15.15,0,0,0-4.48,2.53.53.53,0,0,1-.75-.08A.48.48,0,0,1,299.27,87.81Zm8.32-.81c3.81-.24,7.29,1.63,8.83,2.55-.82.91-2.78,2.62-7.15,3.93h0a10.15,10.15,0,0,1-9.73-2.15C300.74,90.05,303.78,87.25,307.59,87Z" transform="translate(-5.05 -23.75)"/><path class="cls-1" d="M348.28,119.25h0a1,1,0,0,0-1.26-.44,17.27,17.27,0,0,1-17-2.28c-6.62-5.09-9.39-10.9-9.18-14.4.07-1.3-3.89-2.93-3.93-2.94-3.32-1.26-9.92-2-16.88,6.84l-.33.42.18.5c.34,1,8.64,23.17,27.84,29.17a43.78,43.78,0,0,0,13,2.21c9.79,0,13.87-4.52,14.09-4.78a1,1,0,0,0,.14-1.06Zm-4.08,5.48.7-3.26c.49-.11.93-.23,1.31-.35a.94.94,0,0,1,1.11.47l3.37,6.7c-1,.6-2.87,1.75-4,2.38A2.49,2.49,0,0,1,345,131l-3.07-.57a.58.58,0,0,1-.47-.57V127a.56.56,0,0,1,.27-.48l2.19-1.37A.55.55,0,0,0,344.2,124.73ZM338.74,122a19.86,19.86,0,0,0,4.93-.23l-.49,2.3a.62.62,0,0,1-.26.37l-1.72,1.06a.54.54,0,0,1-.6,0l-1.59-1a.56.56,0,0,1-.27-.48Zm-.37,3.47,1.68,1a.54.54,0,0,1,.27.48v3.2a.56.56,0,0,1-.26.48l-2.84,1.87a.58.58,0,0,1-.8-.17v0l-2.63-4.5a.57.57,0,0,1,.2-.78l.07,0h0l3.79-1.61A.58.58,0,0,1,338.37,125.43Zm-.78-3.62v2a.58.58,0,0,1-.35.53l-4.36,1.84a.56.56,0,0,1-.75-.29.83.83,0,0,1,0-.15l-.38-2.52a.58.58,0,0,1,.2-.54l2.23-1.79A18.55,18.55,0,0,0,337.59,121.81Zm-9-4,.24.19a19.85,19.85,0,0,0,4.06,2.43l-1.61,1.29a.59.59,0,0,1-.65.06l-2.37-1.32a.58.58,0,0,1-.3-.54Zm1.66,5.09a.57.57,0,0,1,.3.42l.49,3.37a.58.58,0,0,1-.24.56L328.37,129a.59.59,0,0,1-.65,0l-2.54-1.72a.62.62,0,0,1-.26-.48v-2.61a.63.63,0,0,1,.17-.4l2.06-2.06a.59.59,0,0,1,.69-.1ZM327,116.49c.19.17.39.33.57.5l-.72,3.2a.57.57,0,0,1-.16.37l-2.34,2.33a.56.56,0,0,1-.44.17l-2.66-.19a.59.59,0,0,1-.47-.32l-.74-1.49a.56.56,0,0,1,.07-.62l2.13-2.64a.61.61,0,0,1,.35-.21Zm-12.17-.06,2.51-1.67a.59.59,0,0,1,.66,0l2.77,2.08a.59.59,0,0,1,.12.81h0l-1.65,2a.57.57,0,0,1-.6.2L315,119a.56.56,0,0,1-.43-.55V116.9A.6.6,0,0,1,314.79,116.43Zm-.76-.89a.6.6,0,0,1-.43.09l-3-.59a.55.55,0,0,1-.45-.44l-.18-.83a.66.66,0,0,1,0-.34l1.75-4.33a.58.58,0,0,1,.75-.31h0l4.22,2.07a.58.58,0,0,1,.32.52v1.81a.58.58,0,0,1-.25.48Zm6.62-6.82a27.48,27.48,0,0,0,5.22,6.76h0l-3,.81a1.55,1.55,0,0,1-1.35-.26l-2.71-2a1.54,1.54,0,0,1-.63-1.25v-1.12a1.54,1.54,0,0,1,.54-1.17C319.29,110,320.11,109.27,320.65,108.72ZM319,103.59a13.56,13.56,0,0,0,1.12,3.94l-1.77,1.69a1.57,1.57,0,0,1-1.76.27L313,107.72a19.52,19.52,0,0,0,6-4.12Zm-6.67-3.24a10.14,10.14,0,0,1,5.68,1.48,17.25,17.25,0,0,1-6.45,4.44,14,14,0,0,1-9.37.18C305.4,102.57,308.81,100.52,312.3,100.35Zm-9.65,8.24a17.46,17.46,0,0,0,4.14.52,14.87,14.87,0,0,0,3.92-.53l-1.94,4.75a.61.61,0,0,0,0,.33l.25,1.15a.57.57,0,0,1-.25.6L307,116.56A63.58,63.58,0,0,1,302.65,108.59Zm5,8.91,2-1.31a.65.65,0,0,1,.43-.09l2.84.56a.57.57,0,0,1,.47.56v1.64a.57.57,0,0,1-.14.38L311,121.93C309.74,120.45,308.64,119,307.66,117.5Zm4.06,5.33,2.2-2.61a.57.57,0,0,1,.59-.19l4,1a.6.6,0,0,1,.38.3l.83,1.65a.61.61,0,0,1,0,.6l-3,4.13A45.45,45.45,0,0,1,311.72,122.83Zm5.87,5.67,3-4.25a.6.6,0,0,1,.51-.24l2.12.16a.57.57,0,0,1,.53.57v2.09a.57.57,0,0,1-.2.44l-3.79,2.84C319,129.6,318.3,129.06,317.59,128.5Zm3.46,2.44,3-2.57a.56.56,0,0,1,.71,0l2.3,1.57a.56.56,0,0,1,.24.59l-.7,3.21A32,32,0,0,1,321.05,130.94Zm7.23,3.34-.58-.19.81-3.66a.58.58,0,0,1,.23-.36l3.23-2.18.09,0,.32-.14,3.25,5.55a.57.57,0,0,1-.05.65l-1.45,1.84A51,51,0,0,1,328.28,134.28Zm17.23,1.66a29.5,29.5,0,0,1-10.21,0h0l1.56-1.8L337,134l3.84-2.52a.56.56,0,0,1,.42-.08l3.78.7a.58.58,0,0,1,.48.57Zm6.06-2.25a17,17,0,0,1-4.92,2v-2a2.81,2.81,0,0,1,1.33-2.39l3.22-2,1,2A1.81,1.81,0,0,1,351.57,133.69Z" transform="translate(-5.05 -23.75)"/><polygon class="cls-1" points="303.69 89.91 303.7 89.9 303.69 89.9 303.69 89.91"/><path class="cls-1" d="M488.39,103.6c-1.64.31-.37,2.33-.37,2.33-4.7-3.21-13.56-3.4-17.7-3.29a3,3,0,0,0,1.48-1.41l.55-1.13c-.36.12-4.61,1-6.11,2.44-.22.22-.9,1.15-.86,1.44a1,1,0,0,0,.51.71,95.47,95.47,0,0,0,9.82,4.35c-2.76.24-7.33-.24-11.73-.73a1.28,1.28,0,0,0-1.43,1.15h0a1.3,1.3,0,0,0,1.15,1.43h0c2.3.19,5,.3,6.75.3a53.47,53.47,0,0,0,10.56-1,1,1,0,0,0,.73-1.16,1.53,1.53,0,0,0-.11-.27,1,1,0,0,0-.87-.46c-1.78,0-5.4-1.41-8.65-2.83,10.52-.79,15.33,2.22,15.33,2.22-1.45.88-1,4-1,4,2.37-1.64,8.48-3.1,8.48-3.1S490,103.29,488.39,103.6Z" transform="translate(-5.05 -23.75)"/><path class="cls-1" d="M467.05,97.13c0-1.54-.89-.92-.89-.92C464.08,101,458.81,99,458.81,99,462.54,102.3,467.05,98.67,467.05,97.13Z" transform="translate(-5.05 -23.75)"/><path class="cls-1" d="M459,96.55c3.63-1.68,5.1,0,5.78-.46s.17-.81.17-.81A5,5,0,0,0,459,96.55Z" transform="translate(-5.05 -23.75)"/><path class="cls-1" d="M463.29,93.54c5.46,1,6.36,3.39,6.36,3.39s1.92.17,1.57-1-10.67-7.62-18.12.31a3.59,3.59,0,0,0,0,2.5S458.44,92.62,463.29,93.54Z" transform="translate(-5.05 -23.75)"/><path class="cls-1" d="M458.62,108.62a3.92,3.92,0,0,0-2.24,1.06.44.44,0,0,0-.08.11.28.28,0,0,0,.15.36,7.17,7.17,0,0,0,2.36.83,4.19,4.19,0,0,0,2.24-1l0,0a.32.32,0,0,0,0-.46A4.06,4.06,0,0,0,458.62,108.62Z" transform="translate(-5.05 -23.75)"/><rect class="cls-1" x="136.17" width="3.72" height="152.49"/></svg>